<?xml version="1.0" encoding="UTF-8" standalone="no"?>
<!-- Created with Inkscape (http://www.inkscape.org/) -->

<svg
   xmlns:dc="http://purl.org/dc/elements/1.1/"
   xmlns:cc="http://creativecommons.org/ns#"
   xmlns:rdf="http://www.w3.org/1999/02/22-rdf-syntax-ns#"
   xmlns:svg="http://www.w3.org/2000/svg"
   xmlns="http://www.w3.org/2000/svg"
   xmlns:sodipodi="http://sodipodi.sourceforge.net/DTD/sodipodi-0.dtd"
   xmlns:inkscape="http://www.inkscape.org/namespaces/inkscape"
   version="1.1"
   id="svg144"
   width="941"
   height="941"
   viewBox="0 0 941 941"
   sodipodi:docname="v1.svg"
   inkscape:version="0.92.4 5da689c313, 2019-01-14">
  <metadata
     id="metadata150">
    <rdf:RDF>
      <cc:Work
         rdf:about="">
        <dc:format>image/svg+xml</dc:format>
        <dc:type
           rdf:resource="http://purl.org/dc/dcmitype/StillImage" />
        <dc:title></dc:title>
      </cc:Work>
    </rdf:RDF>
  </metadata>
  <defs
     id="defs148" />
  <sodipodi:namedview
     pagecolor="#ffffff"
     bordercolor="#666666"
     borderopacity="1"
     objecttolerance="10"
     gridtolerance="10"
     guidetolerance="10"
     inkscape:pageopacity="0"
     inkscape:pageshadow="2"
     inkscape:window-width="1920"
     inkscape:window-height="1014"
     id="namedview146"
     showgrid="false"
     inkscape:zoom="0.50159405"
     inkscape:cx="1507.1949"
     inkscape:cy="470.5"
     inkscape:window-x="0"
     inkscape:window-y="0"
     inkscape:window-maximized="1"
     inkscape:current-layer="svg144" />
  <path
     inkscape:connector-curvature="0"
     id="path168"
     d="m 1763.7721,880.91525 c -0.018,-19.746 -3.1572,-32.05343 -9.6232,-37.73064 -4.3352,-3.80638 -10.2549,-5.42426 -29.3692,-8.02674 -101.9462,-13.88033 -198.5226,-62.08237 -271.5,-135.50784 -68.4779,-68.89825 -111.9761,-155.61188 -125.4,-249.98478 -9.516,-66.89952 -2.6319,-150.66461 23.9154,-291 7.3746,-38.98383 18.0435,-90.903556 18.8191,-91.582216 0.366,-0.32023 54.4405,-8.35903 120.1655,-17.86402 65.725,-9.504986 157.75,-22.836821 204.5,-29.6263 290.783,-42.230276 494.8979,-71.488721 495.9387,-71.089344 1.2896,0.494876 2.8577,7.046922 16.6375,69.518781 31.8028,144.180129 49.37,246.311569 55.3854,321.998219 1.7545,22.07487 2.0525,69.62978 0.5344,85.28893 -4.7371,48.86458 -15.334,91.45334 -33.1256,133.13131 -11.7716,27.57587 -22.8263,47.89421 -40.3837,74.22464 -65.9712,98.93544 -169.571,169.00408 -289.6462,195.89915 -6.2373,1.39706 -20.8119,4.12042 -32.388,6.05191 -22.3105,3.72251 -26.1007,4.68845 -31.0682,7.91768 -7.4399,4.83642 -9.3843,11.62591 -9.3843,32.76775 v 13.86351 h -32 -32 l -0.01,-8.25 z m 237.4155,-233.35304 c 1.2814,-0.49172 0.9174,-1.36723 -1.9715,-4.74225 -2.6357,-3.07928 -3.3561,-4.65333 -2.8131,-6.14696 1.2654,-3.48071 1.6217,-38.6778 0.4321,-42.68405 -1.6479,-5.54987 -6.1318,-8.8237 -12.0851,-8.8237 -6.2446,0 -9.514,1.52557 -12.0447,5.62039 -1.8589,3.00765 -2.0248,4.93185 -2.0186,23.41201 0.01,17.67056 0.2303,20.52258 1.8338,23.30132 2.6396,4.57411 7.658,6.90255 13.5164,6.27135 4.2351,-0.4563 4.9337,-0.24323 6.365,1.94119 1.6005,2.44266 5.2434,3.21002 8.7857,1.8507 z m -21.31,-12.29903 c -2.3457,-2.3457 -3.5773,-14.69524 -2.8897,-28.97504 0.5828,-12.10394 1.5507,-14.12289 6.7702,-14.12289 6.4953,0 7.0216,1.61562 7.0216,21.55478 v 17.10977 l -5.75,-0.45632 -5.75,-0.45631 2.1012,2.37404 c 1.1557,1.30572 2.4197,2.93654 2.809,3.62404 1.1253,1.98732 -2.1714,1.48882 -4.3123,-0.65207 z m -430.3965,6.94255 c 3.9681,-2.41946 5.8278,-5.98429 6.7054,-12.8534 l 0.6787,-5.31291 -3.7927,0.31291 c -3.7398,0.30855 -3.8007,0.38102 -4.3526,5.18723 -0.5932,5.1659 -2.6661,7.63801 -6.3814,7.61038 -5.6775,-0.0422 -6.5588,-3.15906 -6.5588,-23.19644 0,-19.5975 0.6262,-21.78825 6.2279,-21.78825 4.7332,0 6.7721,2.45527 6.7721,8.15499 v 4.84501 h 4.0879 4.0879 l -0.6415,-4.25 c -1.303,-8.63345 -1.7458,-9.7285 -5.1394,-12.70809 -4.2953,-3.77137 -10.9969,-4.19164 -16.2051,-1.01628 -5.4522,3.32414 -6.1926,6.58825 -6.1679,27.19225 0.019,15.60174 0.2924,18.87741 1.8662,22.3424 3.1423,6.91827 12.151,9.54245 18.8133,5.4802 z m 19.8368,-6.58544 1.7932,-8.54496 5.5783,0.29496 5.5782,0.29496 1.8683,8.25 1.8684,8.25 h 3.3877 c 1.8632,0 3.3877,-0.41695 3.3877,-0.92656 0,-0.50961 -2.925,-13.59266 -6.5,-29.07344 -3.575,-15.48078 -6.5,-28.33883 -6.5,-28.57344 0,-0.23461 -1.3415,-0.42656 -2.981,-0.42656 -2.2674,0 -3.108,0.53857 -3.5117,2.25 -5.3914,22.85394 -12.5073,54.37673 -12.5073,55.40575 0,0.85994 1.215,1.34425 3.3725,1.34425 h 3.3725 z m 5.0163,-21.20504 c 0.7558,-3.1625 1.3903,-6.3125 1.4098,-7 0.02,-0.6875 0.3766,-1.25 0.7933,-1.25 0.4166,0 1.4669,3.15 2.334,7 l 1.5764,7 h -3.7438 -3.7438 z m 28.4455,16.75 v -13 h 8.5 8.5 v -3.5 -3.5 h -8.5 -8.5 v -9.5 -9.5 h 8.5 8.5 v -3.5 -3.5 h -12 -12 v 29.5 29.5 h 3.5 3.5 z m 47,9.5 v -3.5 h -8.5 -8.5 v -9.5 -9.5 h 8.5 8.5 v -3.5 -3.5 h -8.5 -8.5 v -9.5 -9.5 h 8.5 8.5 v -3.5 -3.5 h -12 -12 v 29.5 29.5 h 12 12 z m 38,-9.3601 v -12.86009 l 5.3874,-0.55604 c 11.3861,-1.17514 15.0754,-5.8865 14.4414,-18.44183 -0.3612,-7.15404 -0.5396,-7.6288 -4.0886,-10.88118 -3.6465,-3.34175 -3.8673,-3.40076 -12.7255,-3.40076 h -9.0147 v 29.5 29.5 h 3 3 z m 0,-29.6399 v -9.5 h 4.845 c 6.4468,0 8.1599,1.91078 8.1397,9.07874 -0.01,2.98169 -0.346,5.91639 -0.75,6.52156 -1.2992,1.94565 -5.0069,3.3997 -8.669,3.3997 l -3.5657,0 z m 32,29.5 v -13 h 6 6 v 13 13 h 3.5 3.5 v -29.5 -29.5 h -3.5 -3.5 v 13 13 h -6 -6 v -13 -13 h -3.5 -3.5 v 29.5 29.5 h 3.5 3.5 z m 35,-16.5 v -29.5 h -3.5 -3.5 v 29.5 29.5 h 3.5 3.5 z m 33,26 v -3.5 h -9.5 -9.5 v -26 -26 h -3.5 -3.5 v 29.5 29.5 h 13 13 z m 25.6911,0.36582 c 4.7084,-4.34 5.3089,-7.37893 5.3089,-26.86582 0,-20.02097 -0.6897,-23.21872 -5.7913,-26.85134 -3.6271,-2.58272 -10.8868,-2.88362 -15.2415,-0.63173 -5.5235,2.85632 -6.1991,5.77838 -6.3399,27.42068 -0.1171,17.98997 0.036,19.84372 1.9067,23.06239 4.1129,7.07722 14.5099,9.07121 20.1571,3.86582 z m -12.5905,-5.61582 c -1.8269,-1.50732 -2.208,-3.20839 -2.7485,-12.26683 -0.7949,-13.32123 0.3163,-27.50879 2.3107,-29.50318 0.814,-0.81399 2.9974,-1.47999 4.8519,-1.47999 5.8892,0 6.4853,1.9921 6.4853,21.67545 0,18.19073 -0.682,21.73592 -4.3719,22.72614 -3.3186,0.89058 -4.252,0.72591 -6.5275,-1.15159 z m 44.8128,6.00215 c 4.2561,-3.11704 6.2449,-7.99189 5.841,-14.31755 -0.4601,-7.20602 -2.9853,-10.71299 -10.6587,-14.80291 -8.085,-4.30924 -10.4649,-7.42171 -9.6364,-12.60267 0.8305,-5.19362 3.0449,-7.52902 7.1389,-7.52902 4.2103,0 6.4018,2.98596 6.4018,8.72251 0,4.22189 0.045,4.27749 3.5,4.27749 3.3787,0 3.4998,-0.12989 3.4944,-3.75 -0.016,-10.55626 -4.7236,-16.25 -13.4363,-16.25 -8.8796,0 -13.8768,5.79828 -13.8863,16.11229 -0.01,7.99724 2.5765,11.71949 11.3272,16.31788 3.8414,2.01856 7.438,4.51796 7.9926,5.55423 1.8704,3.49488 1.1913,8.92354 -1.4462,11.56105 -4.8132,4.81318 -10.1181,2.15637 -11.1446,-5.58137 -0.6421,-4.84021 -0.7426,-4.96408 -4.0297,-4.96408 -2.1799,0 -3.3711,0.4818 -3.3711,1.36351 0,3.93938 2.237,12.24498 3.7583,13.95359 4.3108,4.84168 12.9316,5.76053 18.1551,1.93505 z m 31.0249,0.92058 c 6.3275,-3.39346 7.0617,-6.24628 7.0617,-27.43925 0,-20.54 -0.6382,-23.7305 -5.5137,-27.56558 -3.7899,-2.98115 -12.1296,-3.02298 -15.8715,-0.0796 -5.173,4.06913 -5.615,6.20369 -5.6133,27.11204 0,21.91828 0.7528,24.92803 6.9985,28.04811 4.4918,2.24394 8.6585,2.21956 12.9383,-0.0757 z m -10.9383,-7.17273 c -1.8585,-1.85849 -2,-3.33333 -2,-20.84501 0,-16.98675 0.1803,-19.00821 1.8287,-20.5 2.4273,-2.19667 7.4541,-2.10488 9.5163,0.17375 1.4156,1.56422 1.655,4.52952 1.655,20.5 0,17.33793 -0.1429,18.81408 -2,20.67126 -1.1,1.1 -3.125,2 -4.5,2 -1.375,0 -3.4,-0.9 -4.5,-2 z m 30.4929,-3.87308 0.716,-12.87309 4.8418,-0.57343 c 10.8111,-1.28042 14.4005,-6.07345 13.7781,-18.39846 -0.3612,-7.15404 -0.5396,-7.6288 -4.0886,-10.88118 -3.6766,-3.36939 -3.7986,-3.40076 -13.2255,-3.40076 h -9.5147 v 29.5 29.5 h 3.3884 3.3885 z m 0.5071,-29.49687 v -9.63005 h 4.345 c 5.9089,0 7.655,2.08425 7.655,9.13761 0,7.06434 -1.4219,8.93018 -7.3108,9.59396 l -4.6892,0.52853 z m 31,29.36995 v -13 h 6 6 v 13 13 h 3.5 3.5 v -29.5 -29.5 h -3.5 -3.5 v 13 13 h -6 -6 v -13 -13 h -3.5 -3.5 v 29.5 29.5 h 3.5 3.5 z m 35,-16.5 v -29.5 h -3.5 -3.5 v 29.5 29.5 h 3.5 3.5 z m 62.3716,25.59014 3.1284,-3.12812 0.6575,-16.23101 c 0.3616,-8.92706 0.6991,-20.61851 0.75,-25.98101 l 0.092,-9.75 h -4 -4 v 24.17126 c 0,21.08829 -0.2111,24.40451 -1.655,26 -2.3597,2.60743 -5.8553,2.26679 -8.2725,-0.80612 -1.9624,-2.49486 -2.0725,-3.87631 -2.0725,-26 v -23.36514 h -3.6012 -3.6012 l 0.3578,24.75 c 0.3232,22.35305 0.5459,25.06197 2.2999,27.97131 4.2393,7.03198 14.082,8.20266 19.9163,2.36883 z m 34.6284,0.40986 v -3.5 h -8.5 -8.5 v -9.5 -9.5 h 8.5 8.5 v -3.45956 -3.45956 l -8.25,-0.29044 -8.25,-0.29044 -0.2876,-9.25 -0.2875,-9.25 h 8.5375 8.5376 v -3.5 -3.5 h -12 -12 v 29.5 29.5 h 12 12 z m -255.0608,-121.5 c 7.5332,-22.52854 16.5737,-35 25.3716,-35 2.9123,0 8.2982,3.53757 15.6892,10.3049 7.2908,6.67569 21.3792,15.87213 32.5041,21.21767 52.1407,25.05366 113.385,18.13253 158.0519,-17.86121 16.3888,-13.20651 30.1163,-30.33434 39.4015,-49.16136 6.7008,-13.58672 10.0892,-23.27965 13.2472,-37.89594 3.1594,-14.62264 3.1127,-42.54769 -0.096,-57.60406 -9.0752,-42.58038 -33.9062,-77.24784 -71.2337,-99.45179 -15.1965,-9.03956 -34.779,-15.81637 -53.6966,-18.58248 -11.0114,-1.61009 -41.0652,-0.71379 -51.1782,1.52629 -55.1141,12.20808 -98.3106,53.0104 -112.9959,106.73307 -1.1615,4.24879 -2.9014,13.21093 -3.8666,19.91585 l -1.7548,12.19077 -1.7891,-12.86474 c -2.2849,-16.4309 -6.3172,-30.0519 -13.0837,-44.19644 -7.7334,-16.16596 -16.1595,-27.98345 -29.4756,-41.33895 -21.0707,-21.13303 -43.5465,-33.36746 -74.5343,-40.57169 -11.544,-2.68382 -47.2353,-2.68372 -59.5,1.7e-4 -56.5028,12.36453 -100.1578,54.1655 -114.0612,109.21722 -14.9233,59.08974 8.1748,122.19965 57.575,157.30947 9.9827,7.09497 28.8571,16.58778 40.7511,20.49562 22.6773,7.45078 50.2938,9.00402 74.1138,4.1684 27.6806,-5.61933 50.0539,-16.77279 71.9478,-35.8672 4.0792,-3.55753 8.7778,-6.7672 10.4415,-7.13261 4.1027,-0.9011 9.0282,1.31392 13.0125,5.85176 7.1984,8.19855 16.4771,31.49203 21.1507,53.09728 1.1897,5.5 2.4203,11.125 2.7345,12.5 0.4051,1.7726 1.6661,-1.86442 4.3341,-12.5 2.0696,-8.25 5.1923,-19.275 6.9395,-24.5 z m -170.8705,-70.08837 c -22.5403,-4.42148 -40.193,-18.15469 -49.7808,-38.72776 -12.7249,-27.30454 -5.2047,-60.6127 18.0566,-79.97528 21.1687,-17.62072 48.8992,-20.85728 73.6337,-8.59414 7.6963,3.81571 11.0126,6.23354 17.6389,12.85988 6.7777,6.77766 8.9258,9.75917 12.6753,17.59316 5.6774,11.86174 7.0752,17.86681 7.0839,30.43251 0.026,37.50196 -31.3707,67.99086 -69.3763,67.37063 -3.025,-0.0494 -7.4941,-0.48092 -9.9313,-0.959 z M 1651.32,393.5791 c 10.8688,-5.15761 8.2647,-22.11073 -3.6945,-24.05145 -10.6684,-1.73123 -18.4959,10.13855 -12.8224,19.44415 3.4245,5.61692 10.33,7.54316 16.5169,4.6073 z m 277.9597,55.09007 c -3.85,-0.79283 -11.2556,-3.54632 -16.4568,-6.11888 -15.6681,-7.74955 -27.5566,-21.28324 -33.864,-38.55044 -2.4452,-6.694 -2.6792,-8.60102 -2.6792,-21.8346 0,-13.23358 0.234,-15.1406 2.6792,-21.8346 3.9147,-10.71685 8.3754,-17.66013 16.8208,-26.18243 6.0827,-6.13808 9.2952,-8.44118 17,-12.18747 12.3391,-5.99967 18.0847,-7.30957 31.5,-7.18137 8.9425,0.0855 12.4963,0.59235 19,2.71004 13.2109,4.3017 24.7088,12.22361 32.9116,22.67583 29.3429,37.38923 12.4567,92.08923 -32.9116,106.61205 -10.0038,3.20231 -23.8856,3.97473 -34,1.89187 z m 20.5875,-55.78394 c 1.8608,-1.254 3.9457,-3.3915 4.6332,-4.75 3.3856,-6.69101 -0.1734,-15.38514 -7.3173,-17.87507 -5.1913,-1.80935 -8.8247,-0.87361 -13.0624,3.36403 -2.9012,2.90126 -3.341,4.0023 -3.341,8.36433 0,10.61749 10.5579,16.64481 19.0875,10.89671 z m -150.5463,-89.71998 c 3.2014,-10.14785 8.8303,-21.73595 15.2602,-31.41601 9.3788,-14.11944 28.5656,-30.79981 44.6986,-38.85942 14.0416,-7.01487 32.9192,-11.66518 47.881,-11.79503 l 8.119,-0.0705 -4,-1.49953 c -6.223,-2.33288 -29.7204,-8.12829 -41.9482,-10.34612 -61.2019,-11.10058 -127.355,-8.30994 -183.928,7.7589 l -13.1238,3.72771 12,0.62383 c 41.1856,2.14107 78.8238,26.87883 97.6556,64.18441 4.3296,8.57697 9.5266,24.97147 10.9805,34.63945 l 1.2704,8.44768 1.2266,-8.44768 c 0.6745,-4.64623 2.4332,-12.27269 3.9081,-16.94769 z m -296.4937,4.5 c 7.435,-15.51038 16.008,-27.55521 28.4691,-39.99804 15.4675,-15.44493 32.8057,-26.73424 52.4157,-34.12915 l 8.4323,-3.17982 -6.9323,-2.16335 c -3.8128,-1.18984 -10.7573,-2.57527 -15.4323,-3.07873 -11.6499,-1.25459 -65.585,-1.1939 -70.1678,0.079 -2.0172,0.56029 -5.0035,2.54004 -6.636,4.39946 l -2.9684,3.38074 -0.7532,21.84497 c -0.9385,27.21617 0.5538,58.45922 3.1613,66.18291 l 1.8021,5.33795 1.4286,-3.33795 c 0.7857,-1.83587 4.0171,-8.73795 7.1809,-15.33795 z m 594.594,9.5 c 1.6178,-5.76493 1.826,-10.79731 1.8413,-44.5 0.02,-43.21909 0.1345,-42.57046 -8.2672,-46.63766 -4.2121,-2.03902 -5.2982,-2.08191 -40.5218,-1.60032 -33.4219,0.45696 -36.7682,0.6623 -43.6938,2.68123 -4.125,1.20251 -7.8593,2.53898 -8.2984,2.96993 -0.4391,0.43096 2.0359,1.81072 5.5,3.06612 18.3769,6.65987 37.8917,19.13249 52.3996,33.49049 15.5139,15.35355 26.8506,32.21186 34.4936,51.29419 1.9874,4.96182 3.5922,7.75891 4.0163,7 0.3885,-0.69519 1.5271,-4.18898 2.5304,-7.76398 z"
     style="fill:#e3bbc1" />
  <path
     inkscape:connector-curvature="0"
     id="path166"
     d="m 1763.4985,874.41525 c -0.668,-17.23228 -2.2811,-23.65283 -7.353,-29.26682 -4.6624,-5.16073 -10.8842,-7.34786 -26.8658,-9.44416 -136.9682,-17.96596 -260.9446,-95.39508 -334.7048,-209.03902 -11.1697,-17.20936 -16.3686,-26.43305 -26.4441,-46.91619 -28.321,-57.5755 -42.5341,-116.1585 -44.0549,-181.58381 -1.1742,-50.51455 5.3023,-111.706 21.8031,-206 7.3216,-41.83937 23.8022,-123.328566 25.1966,-124.585256 0.6622,-0.59689 87.1541,-13.53347 192.2041,-28.747956 314.9586,-45.6157368 626.8036,-90.666784 627.5987,-90.666784 1.2594,0 2.4662,4.897378 13.3061,54.0000002 56.136,254.2858358 69.6778,366.6755958 55.0638,456.9999958 -23.8829,147.61257 -125.474,276.46382 -267.5212,339.30564 -41.8657,18.5214 -78.4989,28.85503 -133.4474,37.64332 -26.7265,4.27453 -30.5,8.94294 -30.5,37.73254 v 15.3185 h -31.8548 -31.8547 z m 239.2812,-226.8317 c 0,-0.31994 -1.6408,-2.58408 -3.6462,-5.03142 -3.2496,-3.96565 -3.5216,-4.72336 -2.5,-6.96535 0.7349,-1.61302 1.1448,-9.40567 1.1424,-21.71858 -0,-17.26987 -0.1999,-19.52464 -1.9522,-22.39862 -2.8842,-4.7302 -6.4973,-6.69454 -12.1565,-6.60916 -5.698,0.086 -9.1393,2.03054 -11.6167,6.56425 -1.5231,2.78724 -1.7708,5.96852 -1.7708,22.74058 0,16.88422 0.2412,19.9419 1.7985,22.79422 2.7948,5.11893 7.2034,7.39086 13.4466,6.92958 4.6164,-0.34108 5.4283,-0.108 6.7731,1.94433 1.2238,1.86773 2.419,2.33187 6.0048,2.33187 2.4623,0 4.477,-0.26177 4.477,-0.5817 z m -22.9611,-12.60686 c -1.9009,-2.04035 -2.0389,-3.452 -2.0389,-20.84501 0,-17.08134 0.1609,-18.80212 1.9064,-20.38178 2.8076,-2.54086 8.2074,-1.76149 9.806,1.41535 1.416,2.81373 1.8654,36 0.4876,36 -0.44,0 -1.2275,-0.39118 -1.75,-0.86929 -0.5225,-0.47811 -2.632,-0.65453 -4.6877,-0.39204 l -3.7376,0.47726 1.9876,2.52689 c 3.4453,4.37993 1.7933,6.11164 -1.9734,2.06862 z m -430.3375,7.22904 c 4.2035,-2.56299 6.5239,-7.25091 6.6756,-13.4865 l 0.123,-5.05398 h -3.5 c -3.4865,0 -3.5021,0.0203 -4.0255,5.22545 -0.5808,5.77619 -1.268,6.83539 -5.0378,7.76532 -1.7747,0.43779 -3.3128,0.0259 -5,-1.33887 -2.401,-1.94227 -2.4413,-2.24279 -2.7479,-20.50034 -0.2956,-17.59921 -0.2078,-18.63262 1.75,-20.59037 2.7758,-2.77584 7.5034,-2.6956 9.5045,0.16132 0.8561,1.22237 1.5567,4.14737 1.5567,6.5 v 4.27749 h 4.1376 4.1377 l -0.6676,-5.68041 c -1.1818,-10.055 -5.8058,-14.62163 -14.6813,-14.49914 -4.8494,0.0669 -8.302,2.10755 -10.9704,6.48388 -1.7531,2.87518 -1.9489,5.12945 -1.9523,22.47779 -0,21.68162 0.689,24.84076 6.1861,28.19225 4.206,2.56433 10.3683,2.59241 14.5116,0.0661 z m 20.0048,-6.29048 1.8564,-8.25 h 5.3896 5.3896 l 1.3233,6 c 0.7278,3.3 1.5594,7.0125 1.8481,8.25 0.4316,1.85026 1.2052,2.25 4.3543,2.25 h 3.8295 l -6.8025,-29.16255 c -3.7414,-16.03941 -7.3857,-29.53252 -8.0985,-29.98469 -2.4149,-1.53191 -4.5747,-0.87088 -5.1921,1.58913 -0.3371,1.34303 -3.3267,14.28053 -6.6436,28.75 -3.3169,14.46946 -6.2258,26.87061 -6.4642,27.55811 -0.2982,0.86018 0.7809,1.25 3.4602,1.25 h 3.8936 z m 4.2938,-17.17371 c 0,-2.65111 2.3389,-11.57629 3.0337,-11.57629 0.5911,0 2.9663,9.74211 2.9663,12.16678 0,0.45827 -1.35,0.83322 -3,0.83322 -1.9286,0 -3,-0.50848 -3,-1.42371 z m 29,12.42371 v -13 h 8.5 8.5 v -3.5 -3.5 h -8.5 -8.5 v -9.5 -9.5 h 8.5 8.5 v -3.5 -3.5 l -6.75,-0.009 c -3.7125,-0.005 -9.1125,-0.29246 -12,-0.63929 l -5.25,-0.6306 v 30.13929 30.13929 h 3.5 3.5 v -13 z m 47,9.54044 v -3.45956 l -8.25,-0.29044 -8.25,-0.29044 -0.2876,-9.25 -0.2875,-9.25 h 8.5375 8.5376 v -3.45956 -3.45956 l -8.25,-0.29044 -8.25,-0.29044 -0.2876,-9.25 -0.2875,-9.25 h 8.5375 8.5376 v -4 -4 h -12 -12 v 30 30 h 12 12 z m 38.2201,-9.28763 0.2799,-12.74718 5.899,-0.73547 c 6.9211,-0.86289 9.9403,-2.59187 12.2182,-6.99681 2.1812,-4.21796 2.1597,-15.37021 -0.038,-19.61965 -2.3453,-4.53522 -5.9191,-5.93646 -16.1143,-6.3181 l -8.9652,-0.3356 -0.2649,29.75 -0.2649,29.75 h 3.485 3.485 z m 0.2371,-21.50367 c -0.301,-0.78426 -0.4144,-4.98615 -0.2522,-9.33753 l 0.295,-7.91161 4.6575,-0.30102 c 3.9034,-0.25227 4.9154,0.0671 6.25,1.97251 2.2378,3.19482 2.1387,12.03592 -0.1575,14.06465 -2.5781,2.27769 -10.095,3.33146 -10.7928,1.513 z m 31.5428,21.25086 v -13 h 6 6 v 13 13 h 3.5 3.5 v -30 -30 h -3.471 -3.471 l -0.279,13.25 -0.279,13.25 -5.7207,0.29903 -5.7206,0.29903 -0.2794,-13.29903 -0.2793,-13.29903 -3.25,-0.31336 -3.25,-0.31336 v 30.06336 30.06336 h 3.5 3.5 z m 35,-17.06336 v -30.06336 l -3.25,0.31336 -3.25,0.31336 -0.2649,29.75 -0.2649,29.75 h 3.5149 3.5149 z m 33,26.56336 v -3.5 h -8.9834 -8.9834 l -0.2666,-26.25 -0.2666,-26.25 -3.75,-0.31037 -3.75,-0.31036 v 30.06036 30.06037 h 13 13 z m 23.9152,1.74845 c 6.3443,-3.24805 7.0852,-6.20231 7.081,-28.23285 -0,-17.57977 -0.197,-19.83259 -1.9522,-22.71127 -2.7044,-4.43535 -6.218,-6.47255 -11.2955,-6.54931 -5.7026,-0.0862 -9.6828,1.95152 -12.1981,6.24498 -1.8775,3.2048 -2.0504,5.14469 -2.0504,23 0,21.73116 0.4577,23.714 6.3978,27.71267 4.087,2.75115 9.3009,2.95044 14.0174,0.53578 z m -10.9152,-7.24845 c -1.8585,-1.85849 -2,-3.33333 -2,-20.84501 0,-16.98675 0.1803,-19.00821 1.8287,-20.5 1.8957,-1.71556 5.8557,-2.16891 7.7716,-0.88968 2.8306,1.8901 3.3997,5.60819 3.3997,22.2144 0,16.83411 -0.04,17.15095 -2.4546,19.56574 -2.9759,2.97592 -5.8701,3.12987 -8.5454,0.45455 z m 43.4351,7.46378 c 4.5912,-2.17867 7.5649,-7.95794 7.5649,-14.70205 0,-7.15997 -2.7667,-11.31204 -10.1694,-15.26173 -8.5481,-4.56081 -9.8306,-6.05235 -9.8306,-11.43248 0,-5.71208 2.1559,-9.07296 5.8067,-9.05221 4.7004,0.0267 7.1933,3.29085 7.1933,9.41895 0,3.40846 0.1543,3.56574 3.5,3.56574 h 3.5 l -0,-4.75 c -0,-9.37031 -5.4849,-15.61989 -13.5935,-15.4973 -7.8865,0.11922 -13.192,5.52958 -14.0289,14.30613 -0.7778,8.1579 2.2616,13.45229 10.1175,17.6237 8.3214,4.41858 10.869,7.57745 10.1906,12.63572 -0.6621,4.93604 -2.6709,7.01508 -6.7781,7.01508 -3.9867,0 -5.54,-2.03599 -6.4167,-8.41068 -0.6658,-4.84381 -0.7334,-4.92265 -4.2217,-4.92265 h -3.545 l 0.5371,5.92342 c 0.2954,3.25788 1.3473,7.29497 2.3376,8.97131 3.3361,5.64764 11.2782,7.68193 17.8382,4.56905 z m 33.375,-0.48941 c 5.4884,-3.34619 6.1899,-6.52379 6.1899,-28.04112 0,-15.63508 -0.2988,-19.76055 -1.6349,-22.57617 -2.0014,-4.21765 -6.1956,-6.52375 -11.8651,-6.52375 -5.7929,0 -9.8652,2.32096 -12.0588,6.87262 -1.5765,3.27139 -1.8257,6.41145 -1.8084,22.79405 0.017,16.00956 0.2911,19.51848 1.7421,22.29422 3.5538,6.79787 12.758,9.25113 19.4352,5.18015 z m -9.8101,-5.71555 c -3.5455,-1.37866 -3.936,-3.5227 -3.9682,-21.78631 -0.036,-20.56932 0.5115,-22.47251 6.4682,-22.47251 5.9573,0 6.5,1.89091 6.5,22.64993 v 18.20491 l -2.6349,2.07258 c -2.703,2.12619 -3.7552,2.34628 -6.3651,1.3314 z m 29,-5.11892 v -12.86009 l 5.5774,-0.57565 c 9.9364,-1.02552 13.6889,-5.57896 13.7523,-16.68739 0.07,-12.31411 -3.8477,-15.84987 -18.0191,-16.2611 l -8.8106,-0.25567 -0.2649,29.75 -0.2649,29.75 h 4.0149 4.0149 z m 0,-29.51209 v -9.62781 h 4.4433 c 5.5426,0 7.5567,2.42847 7.5567,9.11172 0,5.98039 -2.1715,8.6405 -7.75,9.4938 l -4.25,0.6501 z m 31,29.37219 v -13 h 6 6 v 13 13 h 3.5 3.5 v -30 -30 h -3.471 -3.471 l -0.279,13.25 -0.279,13.25 -5.75,0.2999 -5.75,0.29991 v -13.54991 -13.5499 h -3.5 -3.5 v 30 30 h 3.5 3.5 z m 36,-16.5 c 0,-27.42337 -0.1232,-29.50096 -1.75,-29.51365 -0.9625,-0.008 -2.7625,-0.285 -4,-0.61664 l -2.25,-0.60297 v 30.11663 30.11663 h 4 4 z m 57.8238,28.41155 c 1.8038,-0.6288 4.0839,-2.63472 5.3993,-4.75 2.2108,-3.55532 2.2769,-4.38688 2.2769,-28.66155 v -25 h -3.5 -3.5 l -0.5,24.83218 c -0.4653,23.10873 -0.6348,24.93058 -2.4412,26.25 -2.5457,1.85943 -4.489,1.79095 -6.7301,-0.23717 -1.6567,-1.4993 -1.8287,-3.55572 -1.8287,-21.86043 0,-11.11299 -0.2862,-22.29324 -0.636,-24.84501 -0.6132,-4.47397 -0.756,-4.63957 -4,-4.63957 h -3.364 v 23.97976 c 0,19.95884 0.2768,24.67177 1.6512,28.10669 2.7368,6.83975 9.4626,9.51285 17.1726,6.8251 z m 39.1762,-2.41155 v -3.5 h -8.5 -8.5 v -9.5 -9.5 h 8.5 8.5 v -3.5 -3.5 h -8.5 -8.5 v -9.5 -9.5 h 8.5603 8.5604 l -0.3104,-3.75 -0.3103,-3.75 -12.25,-0.28078 -12.25,-0.28078 v 30.03078 30.03078 h 12.5 12.5 z m -254.9789,-124 c 5.9887,-16.80411 12.7591,-27.78362 19.18,-31.10402 5.0475,-2.61016 8.7776,-1.14494 18.517,7.2736 21.2602,18.37703 45.1183,30.05447 72.5541,35.51193 15.5808,3.09929 38.4658,3.08223 54.4555,-0.0406 59.7756,-11.67427 105.472,-56.59164 118.4721,-116.4525 3.2076,-14.76973 3.2076,-44.60709 0,-59.37682 -6.4254,-29.58678 -19.7147,-53.91608 -41.1574,-75.34861 -21.9528,-21.94245 -47.4274,-35.49763 -76.8147,-40.87356 -15.4398,-2.82446 -24.9506,-3.32519 -40.0206,-2.10701 -38.561,3.11707 -72.4162,20.03574 -99.1721,49.55986 -19.9483,22.01214 -33.7234,53.34221 -36.5995,83.24183 -0.3854,4.00625 -0.8223,7.15625 -0.9709,7 -0.1486,-0.15626 -0.7804,-4.5591 -1.4039,-9.7841 -7.3153,-61.29806 -52.3108,-111.89015 -112.5607,-126.5613 -46.085,-11.22189 -95.7555,0.91486 -132.0049,32.25475 -58.5558,50.62519 -68.267,138.28249 -22.2532,200.867 7.8101,10.62278 25.0181,27.11353 35.7581,34.26782 26.1065,17.39042 52.654,25.50831 83.5,25.53325 24.5963,0.0199 42.733,-4.1206 65.346,-14.91807 13.7585,-6.56949 21.7159,-11.7854 33.9709,-22.26709 5.1243,-4.38284 10.5243,-8.20526 12,-8.49427 4.4023,-0.8622 10.4011,2.48476 14.5267,8.10496 8.7949,11.98102 14.6316,28.78082 22.3092,64.21295 0.3725,1.71936 1.8874,-2.80837 4.8513,-14.5 2.3702,-9.35 5.7529,-21.05 7.517,-26 z m -167.0211,-67.12181 c -18.5368,-2.82198 -30.9244,-9.1548 -42.8166,-21.88883 -30.7647,-32.94256 -20.5274,-86.45664 20.2723,-105.97073 4.9744,-2.37917 11.5051,-4.88764 14.5128,-5.57437 7.704,-1.75899 23.249,-1.54437 31.0315,0.42844 23.8058,6.0346 43.0845,24.99821 49.0245,48.22331 2.4478,9.57063 2.6385,25.00077 0.4173,33.75965 -5.75,22.67423 -23.2828,41.11696 -45.7752,48.15089 -6.814,2.13093 -21.2914,3.68995 -26.6666,2.87164 z m 13.8101,-56.40382 c 3.3418,-2.0374 6.1899,-7.1177 6.1899,-11.04112 0,-3.60012 -3.1796,-9.07159 -6.42,-11.04757 -8.388,-5.11501 -19.5926,1.25109 -19.5616,11.11432 0.015,4.69378 1.8177,7.97299 5.894,10.71998 4.2097,2.83693 9.5029,2.93382 13.8977,0.25439 z m 279.5528,55.98795 c -23.2064,-4.12607 -43.0205,-20.2608 -51.6981,-42.09795 -4.034,-10.1514 -4.9543,-16.04068 -4.4199,-28.28439 0.542,-12.41919 3.0574,-20.87004 9.4678,-31.80762 12.7193,-21.70228 40.1537,-35.02237 65.5112,-31.80736 16.5998,2.10464 27.4993,7.5764 39.92,20.04052 6.9693,6.99373 9.4265,10.3034 12.6838,17.08431 9.4059,19.58038 9.4599,40.00216 0.1572,59.41017 -8.2853,17.28549 -24.9527,31.13095 -43.1963,35.8828 -7.3318,1.9097 -21.9882,2.7241 -28.4257,1.57952 z m 20.325,-58.3189 c 2.8222,-3.07952 3.3121,-4.3506 3.3121,-8.59394 0,-15.09647 -20.2861,-17.83286 -25.056,-3.3798 -0.9445,2.86173 -0.852,4.28278 0.511,7.85177 2.3094,6.047 6.5232,8.69234 12.9829,8.15033 4.1304,-0.34656 5.4797,-1.0054 8.25,-4.02836 z M 1798.313,307.16525 c 2.975,-11.32326 11.469,-28.89234 18.4215,-38.10285 21.6676,-28.705 52.8293,-45.64407 87.7718,-47.71143 l 11.7734,-0.69658 -13.1239,-3.72223 c -63.5556,-18.02588 -138.514,-19.42613 -203.8651,-3.80827 -6.9333,1.65694 -15.8471,4.0266 -19.8085,5.2659 l -7.2025,2.25327 11.5,0.66911 c 6.325,0.36802 13.75,1.1747 16.5,1.79263 15.8399,3.55926 34.7363,12.07426 46.5316,20.96788 8.3411,6.2891 21.3686,19.84648 26.9052,27.99962 9.7784,14.39922 17.661,35.28865 19.7057,52.22106 l 0.7695,6.37189 0.8127,-7 c 0.447,-3.85 1.9359,-11.275 3.3086,-16.5 z m 301.2566,-32 c 0.2448,-25.51642 0.01,-38.68996 -0.7474,-41.22372 -0.6844,-2.30202 -2.4974,-4.7837 -4.7486,-6.5 l -3.6415,-2.77628 h -38.0762 c -39.6926,0 -41.2904,0.14152 -52.8699,4.6831 -2.6948,1.05695 -2.4596,1.22703 6.654,4.81171 39.5878,15.57117 70.7424,47.10822 85.7559,86.80857 l 2.3838,6.30339 2.465,-7.30339 c 2.4153,-7.15583 2.4724,-8.06101 2.8249,-44.80338 z m -601.7785,43.5 c 14.6677,-37.87953 45.2006,-68.50271 83.8026,-84.05018 9.9419,-4.00424 10.2125,-4.19374 7.5,-5.25195 -11.3649,-4.43373 -12.6002,-4.55502 -50.4994,-4.95828 -34.9041,-0.3714 -36.9036,-0.29384 -41.179,1.59739 -8.0242,3.54946 -8.091,3.87526 -8.4379,41.10687 -0.1667,17.89152 0.1498,36.05735 0.7056,40.5 1.1773,9.41041 3.9124,19.18668 5.0164,17.93049 0.4226,-0.48089 1.8139,-3.57434 3.0917,-6.87434 z"
     style="fill:#d79da6" />
  <path
     inkscape:connector-curvature="0"
     id="path164"
     d="m 1763.5198,874.41525 c -0.7301,-21.22564 -3.9631,-29.32088 -13.6455,-34.16701 -4.6909,-2.34788 -6.0789,-2.65182 -22.9831,-5.03272 -123.4676,-17.38993 -232.388,-79.3404 -308.7409,-175.60195 -38.1499,-48.09738 -67.5151,-108.43916 -82.2258,-168.96357 -3.6026,-14.82218 -7.5124,-37.31421 -9.8188,-56.48475 -2.1588,-17.94364 -2.4476,-71.01254 -0.5062,-93 5.9457,-67.33681 16.9564,-137.032 37.992,-240.47907 6.4451,-31.695666 6.803,-33.009386 9.1971,-33.757896 1.3701,-0.42835 94.0661,-14.03389 205.9911,-30.234539 250.1745,-36.21164576 612.2085,-88.528491 612.6196,-88.528491 0.5688,0 2.3437,7.578377 12.422,53.0372432 33.0966,149.2853328 50.1912,245.2055728 58.003,325.4627528 2.6432,27.15605 3.6465,72.83474 2.0427,93 -4.7077,59.18968 -19.1004,111.45435 -45.0279,163.5102 -9.3639,18.80038 -14.6513,27.88662 -27.6347,47.4898 -44.5989,67.33814 -105.7105,121.17734 -179.4247,158.07274 -46.4731,23.26065 -87.5074,36.22215 -145.299,45.89557 -26.5943,4.45146 -31.5195,6.50623 -36.0302,15.03169 -1.8736,3.54113 -2.1594,6.03625 -2.4908,21.75 l -0.3743,17.75 h -31.7791 -31.7791 z m 239.2599,-226.89701 c 0,-0.35585 -1.577,-2.57145 -3.5043,-4.92356 -3.1618,-3.85845 -3.3952,-4.55288 -2.3883,-7.10299 0.6631,-1.67925 1.1603,-10.33517 1.2252,-21.32644 0.1301,-22.04423 -0.7016,-24.94861 -8.0779,-28.2115 -8.3845,-3.70886 -16.7505,0.13036 -19.1549,8.7903 -1.3124,4.72709 -1.4191,33.33903 -0.1448,38.83319 0.4991,2.1516 2.2966,5.3016 3.9945,7 2.7892,2.79007 3.6883,3.08801 9.3188,3.08801 5.2558,0 6.5171,0.35235 8.0542,2.25 1.3934,1.7201 2.8653,2.25 6.25,2.25 2.4351,0 4.4275,-0.29115 4.4275,-0.64701 z m -23.345,-13.18173 c -1.4106,-1.55868 -1.655,-4.47932 -1.655,-19.77749 0,-19.88171 0.6554,-22.40774 5.8067,-22.37846 6.1736,0.0351 7.1933,3.20776 7.1933,22.38206 v 15.26718 l -5.5,-0.45611 c -3.025,-0.25085 -5.5,-0.13234 -5.5,0.26336 0,0.3957 0.9306,2.02643 2.0681,3.62383 1.5617,2.19328 1.7221,2.90437 0.6549,2.90437 -0.7772,0 -2.1578,-0.82293 -3.068,-1.82874 z m -428.3625,6.87676 c 3.5882,-3.15046 5.7075,-8.50268 5.7075,-14.41404 0,-3.57298 -0.067,-3.63398 -4,-3.63398 h -4 v 4.27749 c 0,6.11147 -2.2402,8.9116 -6.8221,8.52721 -5.5375,-0.46456 -6.146,-2.59933 -6.1632,-21.62044 -0.018,-19.45187 0.8506,-22.13297 7.1786,-22.16895 3.5775,-0.0203 5.8067,3.32227 5.8067,8.7072 v 4.27749 h 4 c 3.8473,0 3.9998,-0.12407 3.9944,-3.25 -0.027,-15.88562 -14.9167,-23.21325 -24.9944,-12.30065 -2.477,2.68213 -2.5029,2.89963 -2.8057,23.57094 -0.2579,17.60829 -0.055,21.34788 1.2986,23.96599 3.7991,7.34662 14.6459,9.46478 20.7996,4.06174 z m 17.2887,0.20198 c 1.0462,-4.64555 2.5116,-10.65974 3.0457,-12.5 0.3944,-1.3591 1.601,-1.75 5.4019,-1.75 4.8149,0 4.9099,0.0606 5.8716,3.75 0.5376,2.0625 1.2644,5.35419 1.6151,7.31486 0.9431,5.27284 1.7729,6.11132 5.6952,5.75434 l 3.5071,-0.3192 -3.7441,-16 c -2.0592,-8.8 -5.1844,-22.1875 -6.9449,-29.75 -3.1885,-13.69675 -3.212,-13.75 -6.0475,-13.75 -3.3986,0 -2.3976,-3.01447 -9.962,30 -3.3394,14.575 -6.3153,27.2875 -6.6129,28.25 -0.4539,1.4676 0.1121,1.75 3.5071,1.75 3.5996,0 4.117,-0.30485 4.6677,-2.75 z m 5.4188,-22.08322 c 0,-2.89782 2.4243,-12.12715 3.0124,-11.46837 0.7284,0.81583 2.9876,9.31894 2.9876,11.24441 0,0.58145 -1.35,1.05718 -3,1.05718 -1.65,0 -3,-0.37495 -3,-0.83322 z m 29,11.83322 v -13 h 8.5 8.5 v -3.38172 -3.38173 l -8.5,-0.70804 -8.5,-0.70805 v -8.91023 -8.91023 h 8.5 8.5 v -4 -4 h -12 -12 v 30 30 h 3.5 3.5 z m 48,9.53893 v -3.46106 l -8.75,-0.28894 -8.75,-0.28893 v -9 -9 l 8.808,-0.28978 8.808,-0.28978 -0.308,-3.71022 -0.308,-3.71022 -8.75,-0.28893 -8.75,-0.28894 v -8.96106 -8.96107 h 9.0603 9.0604 l -0.3104,-3.75 -0.3103,-3.75 -12.25,-0.28078 -12.25,-0.28078 v 30.03078 30.03078 h 12.5 12.5 z m 38,-9.53893 v -13 l 4.25,-0.002 c 5.6297,-0.002 10.715,-2.69493 13.2159,-6.99845 2.5976,-4.46973 2.6994,-14.95781 0.1916,-19.74058 -2.6954,-5.1405 -5.483,-6.34964 -16.099,-6.983 l -9.5585,-0.56982 v 30.14693 30.14692 h 4 4 z m 0,-30 v -9 h 4 c 5.6163,0 8,2.61527 8,8.77749 0,6.80184 -1.9835,9.22251 -7.5567,9.22251 h -4.4433 z m 31,30 v -13 h 6 6 v 13 13 h 3.5 3.5 v -30 -30 h -3.5 -3.5 v 13 13 h -6 -6 v -13.06037 -13.06036 l -3.75,0.31036 -3.75,0.31037 -0.2649,29.75 -0.2649,29.75 h 4.0149 4.0149 z m 35.7648,-16.75 -0.2648,-29.75 -3.75,-0.31037 -3.75,-0.31036 v 30.06036 30.06037 h 4.0148 4.0149 z m 32.2352,26.25 v -3.5 h -8.9834 -8.9834 l -0.2666,-26.25 -0.2666,-26.25 -3.75,-0.31037 -3.75,-0.31036 v 30.06036 30.06037 h 13 13 z m 24.8101,1.47437 c 5.4818,-3.34214 6.1899,-6.53463 6.1899,-27.90832 0,-22.3204 -0.6651,-24.7573 -7.6835,-28.15488 -7.8487,-3.79948 -17.0826,-0.0147 -19.2817,7.90311 -1.3049,4.69812 -1.3501,35.59963 -0.059,40.10245 1.0811,3.76962 4.4506,7.85805 7.5239,9.12924 3.6546,1.51164 9.8975,1.00901 13.3102,-1.0716 z m -12.775,-7.90863 c -0.606,-1.13242 -1.0351,-9.56636 -1.0351,-20.34501 0,-16.56605 0.1832,-18.57658 1.8287,-20.06574 1.8957,-1.71556 5.8557,-2.16891 7.7716,-0.88968 2.8227,1.8848 3.3997,5.60926 3.3997,21.94644 0,19.64643 -0.5416,21.28825 -7.0216,21.28825 -2.8403,0 -4.1909,-0.52846 -4.9433,-1.93426 z m 44.9032,8.10699 c 1.8739,-1.00499 4.2294,-3.36047 5.2344,-5.23439 2.2298,-4.15778 2.418,-12.89539 0.3632,-16.86888 -1.7352,-3.35541 -6.6156,-7.65494 -9.7805,-8.61643 -1.2405,-0.37684 -3.7179,-1.78083 -5.5054,-3.11999 -2.9009,-2.17328 -3.25,-2.96644 -3.25,-7.38393 0,-3.61578 0.5388,-5.48793 2,-6.94911 2.0315,-2.03154 5.5325,-2.58457 7.6874,-1.21434 1.6335,1.03869 3.3126,5.74216 3.3126,9.27944 0,2.6875 0.295,2.9349 3.5,2.9349 h 3.5 v -5.09887 c 0,-7.11773 -2.2743,-11.37138 -7.4087,-13.85693 -5.1684,-2.50197 -6.9431,-2.52171 -12.1972,-0.13565 -8.4803,3.85116 -11.1499,17.47859 -5.0029,25.53768 1.5224,1.99604 5.3652,4.91641 8.6533,6.57626 7.3983,3.73463 9.3786,6.51361 8.4707,11.88705 -0.8481,5.02 -2.4038,6.29992 -7.1772,5.90499 -4.0891,-0.33832 -4.6394,-1.19071 -5.8514,-9.06453 -0.5385,-3.49829 -0.8092,-3.75 -4.0319,-3.75 h -3.4547 l 0.022,4.75 c 0.031,6.67858 3.0983,12.96524 7.1944,14.745 4.5292,1.96792 9.6771,1.84702 13.7219,-0.32227 z m 32.7631,-0.13225 c 6.115,-3.72854 6.7542,-6.33334 6.7583,-27.54048 0,-16.6823 -0.2293,-19.4739 -1.906,-22.88496 -4.6824,-9.52562 -19.251,-9.65532 -24.3224,-0.21654 -2.1354,3.97442 -3.0621,33.31118 -1.3009,41.18135 1.1053,4.93907 4.4692,9.40638 8.0696,10.71644 3.3716,1.22687 9.6473,0.60638 12.7014,-1.25581 z m -9.4234,-6.13332 c -3.7716,-1.39522 -4.278,-4.03995 -4.278,-22.34142 0,-16.23241 0.1518,-17.71755 2,-19.56574 2.3429,-2.34295 5.8236,-2.57985 8.5588,-0.58252 1.7765,1.29721 1.9678,2.95828 2.2552,19.57786 0.2566,14.84309 0.04,18.57845 -1.1856,20.44905 -1.766,2.69522 -4.3666,3.56655 -7.3504,2.46277 z m 28.722,-4.78333 v -12.87617 l 5.5414,-0.45954 c 9.7609,-0.80945 13.9124,-5.82384 13.8991,-16.78812 -0.015,-12.243 -4.2827,-16.08016 -18.6905,-16.80465 l -8.75,-0.43999 v 30.12232 30.12232 h 4 4 z m 0,-30.12383 v -9 h 4 c 5.6163,0 8,2.61527 8,8.77749 0,6.80184 -1.9835,9.22251 -7.5567,9.22251 h -4.4433 z m 31,29.9501 v -13.04991 l 5.75,0.29991 5.75,0.2999 0.2798,12.75 0.2799,12.75 h 3.4701 3.4702 v -30 -30 h -3.5 -3.5 v 13 13 h -6 -6 v -13.06037 -13.06036 l -3.75,0.31036 -3.75,0.31037 -0.2649,29.75 -0.2649,29.75 h 4.0149 4.0149 z m 35.7648,-16.7001 -0.2648,-29.75 -3.75,-0.31037 -3.75,-0.31036 v 30.06036 30.06037 h 4.0148 4.0149 z m 59.2679,28.23307 c 5.9704,-3.0874 6.4349,-5.36427 6.7797,-33.23307 l 0.3124,-25.25 h -4.0624 -4.0624 v 24.06574 c 0,14.67678 -0.4039,24.82037 -1.0352,26 -1.2221,2.28355 -7.0965,2.68543 -8.8242,0.60368 -0.722,-0.86994 -1.1971,-9.78445 -1.3725,-25.75 l -0.2681,-24.41942 -3.75,-0.31037 -3.75,-0.31036 v 24.65924 c 0,20.9632 0.2503,25.1867 1.6699,28.17842 3.1123,6.55864 11.6474,9.23878 18.3628,5.76614 z m 37.9673,-1.98307 v -3.5 h -8.5 -8.5 v -9.5 -9.5 h 8.5603 8.5604 l -0.3104,-3.75 -0.3103,-3.75 -8.25,-0.29044 -8.25,-0.29044 v -8.95956 -8.95956 h 8.5 8.5 v -4 -4 h -12.5 -12.5 v 30 30 h 12.5 12.5 z m -259.5578,-109 c 7.5345,-27.63338 17.9086,-45.79113 26.617,-46.58777 5.2407,-0.47942 6.8747,0.35384 16.0022,8.16034 12.3572,10.56884 20.2818,15.77278 34.0925,22.38789 13.0938,6.27178 23.095,9.69025 37.2814,12.74304 8.1278,1.74903 13.4324,2.16931 27.5647,2.1839 26.6758,0.0275 42.7132,-3.68796 66.5,-15.40655 16.8852,-8.31853 27.5977,-16.19258 41.0961,-30.20713 20.2158,-20.98881 32.5852,-44.66476 39.0776,-74.79766 2.7658,-12.8365 2.5255,-44.83845 -0.4368,-58.18973 -6.6216,-29.84367 -19.2279,-52.86736 -40.6943,-74.32271 -22.4332,-22.42154 -45.6707,-35.03937 -76.5426,-41.56214 -13.9283,-2.94283 -40.6567,-3.15978 -55,-0.44641 -65.6624,12.42147 -114.2947,64.94205 -121.8062,131.54493 l -0.733,6.5 -1.3286,-10 c -2.6374,-19.85097 -8.9073,-38.71255 -18.3385,-55.1672 -39.4538,-68.83546 -124.7896,-94.6611 -195.847,-59.27028 -28.3305,14.11029 -53.6964,40.0919 -67.3459,68.9807 -9.4621,20.02638 -13.4056,36.33151 -14.2591,58.95678 -0.4907,13.00496 -0.2517,17.43164 1.4845,27.5 2.8856,16.73331 6.3917,28.15543 12.6556,41.22947 7.7526,16.1811 16.1764,27.99204 29.4839,41.33895 21.3675,21.43072 45.7291,34.58069 76.0343,41.04196 15.0778,3.2147 41.9044,3.21665 57,0.004 28.124,-5.9851 51.9569,-17.86014 72.4014,-36.07488 7.0666,-6.29592 8.3344,-7.03896 12,-7.03307 2.2542,0.004 5.3043,0.80179 6.778,1.77369 9.2866,6.12458 19.0335,27.99801 25.3647,56.92186 1.4203,6.48882 2.8352,12.92286 3.1441,14.29786 0.413,1.83816 1.1528,-0.015 2.7945,-7 1.2281,-5.225 3.4598,-14 4.9595,-19.5 z m 134.5578,-82.6316 c -33.2929,-2.80371 -60,-32.56809 -60,-66.8684 0,-26.65685 14.8184,-49.54954 39.5,-61.02278 10.6409,-4.94643 15.4235,-5.97722 27.7327,-5.97722 19.2013,0 33.833,6.00013 47.2837,19.39002 9.0856,9.0445 13.0311,15.30622 17.0818,27.10998 2.368,6.90032 2.7562,9.64952 2.8236,20 0.065,9.9077 -0.3284,13.30769 -2.2534,19.5 -3.5757,11.50201 -8.5296,19.54314 -17.5805,28.53652 -15.1693,15.0729 -32.4579,21.19553 -54.5879,19.33188 z m 15.4409,-56.95067 c 1.9308,-1.69524 3.9351,-4.62024 4.4542,-6.5 2.1711,-7.86304 -4.1794,-16.42109 -12.1799,-16.41399 -2.3581,0.002 -5.5722,0.83122 -7.2953,1.88194 -3.2642,1.99051 -6.4199,7.45379 -6.4199,11.11432 0,3.66053 3.1557,9.12381 6.4199,11.11432 4.8674,2.9681 10.8175,2.49411 15.021,-1.19659 z m -322.4409,55.55875 c -3.025,-0.81776 -9.3195,-3.35929 -13.9876,-5.64783 -16.0525,-7.8696 -29.8526,-24.97641 -34.5501,-42.82865 -2.552,-9.69868 -2.2992,-26.48497 0.5346,-35.5 5.8083,-18.47738 18.2577,-33.60345 34.0155,-41.32872 12.4393,-6.09841 18.9275,-7.44954 33.3962,-6.95451 9.1408,0.31274 13.6775,0.96333 18.5914,2.66609 20.2311,7.01055 36.5065,23.44964 43.1827,43.61714 1.99,6.01142 2.312,8.97716 2.2798,21 -0.035,13.24186 -0.208,14.44802 -3.1886,22.27315 -7.6139,19.98992 -21.6788,33.90639 -41.4393,41.0022 -6.2503,2.24442 -9.2565,2.67475 -20.3346,2.91088 -9.1418,0.19485 -14.6324,-0.16418 -18.5,-1.20975 z m 23.0938,-54.02503 c 12.6862,-6.56025 6.4184,-25.78372 -7.8812,-24.17195 -6.5731,0.74088 -10.3973,4.90157 -10.9816,11.94795 -0.3938,4.74938 -0.1265,5.74339 2.3305,8.66328 1.5264,1.81409 3.712,3.67727 4.8569,4.14042 3.3307,1.3474 8.4394,1.09375 11.6754,-0.5797 z m 145.8768,-83.74467 c 6.461,-25.75673 22.5459,-49.60456 44.5294,-66.02051 18.551,-13.85278 44.1692,-22.51242 67.3223,-22.75673 l 6.6777,-0.0705 -4,-1.48057 c -14.2585,-5.27763 -46.7764,-12.05856 -72,-15.0141 -18.6507,-2.18536 -70.8598,-2.49829 -88.5,-0.53045 -25.6559,2.86201 -55.9587,8.96765 -74.5,15.01077 l -6,1.95557 7.1776,0.0999 c 56.9484,0.79224 104.8921,42.46899 114.033,99.12717 l 1.7894,11.09082 0.7578,-6.80907 c 0.4169,-3.74499 1.6376,-10.31602 2.7128,-14.60229 z m -297.8944,4.29322 c 13.1552,-31.20428 39.3804,-58.86906 70.4238,-74.28956 4.95,-2.45887 11.8037,-5.48173 15.2305,-6.71746 3.4269,-1.23574 6.0315,-2.56906 5.788,-2.96294 -0.2434,-0.39388 -3.9472,-1.79927 -8.2306,-3.12309 -7.6556,-2.36606 -8.4419,-2.40695 -46.2879,-2.40695 -38.224,0 -38.5225,0.016 -41.6267,2.23031 -6.4935,4.63182 -6.5619,5.16198 -6.1366,47.57493 0.3708,36.9849 0.4585,38.42874 2.7691,45.58135 2.7226,8.42818 1.7305,9.15176 8.0704,-5.88659 z m 597.9062,1.85774 c 1.8152,-7.57214 2.0042,-11.79824 2.0106,-44.95986 0.01,-51.31289 4.4254,-47.11099 -48.993,-46.6218 -35.4442,0.32458 -37.9075,0.46646 -44.9334,2.588 -4.0884,1.23452 -7.8472,2.50031 -8.3529,2.81287 -0.5058,0.31256 4.2019,2.68491 10.4614,5.27191 39.1048,16.16166 68.224,45.8056 83.3537,84.85604 3.2619,8.41909 3.528,8.25633 6.4536,-3.94716 z"
     style="fill:#c87784" />
  <path
     inkscape:connector-curvature="0"
     id="path162"
     d="m 1763.5512,873.91525 c -0.544,-17.5938 -2.4483,-24.3974 -8.4635,-30.23929 -4.6934,-4.55821 -9.5026,-5.96999 -30.6801,-9.00645 -80.7098,-11.57229 -155.4901,-42.45141 -220.1279,-90.89769 -32.3889,-24.27556 -67.6157,-59.4772 -92.1725,-92.10657 -43.1739,-57.36651 -72.8885,-127.90806 -83.1939,-197.5 -3.9041,-26.36462 -4.5775,-36.18567 -4.5592,-66.5 0.029,-47.78833 5.0295,-96.05833 17.9747,-173.5 7.5297,-45.04478 26.6325,-143.057756 28.4575,-146.010726 0.6989,-1.13087 130.5919,-20.187152 596.4934,-87.510058 119.9,-17.325588 219.4154,-31.762406 221.1454,-32.081818 l 3.1455,-0.58075 3.0436,12.841678 c 23.6204,99.658938 50.32,235.995684 60.0905,306.841674 7.5237,54.55461 9.5742,80.32575 9.548,120 -0.029,43.34256 -2.647,66.00434 -12.0736,104.5 -26.387,107.75685 -94.1546,203.36178 -188.8994,266.49459 -19.7823,13.18183 -31.262,19.86949 -51.5403,30.02559 -46.198,23.13753 -88.4757,36.45936 -145.5963,45.87778 -23.1197,3.81213 -28.6457,5.69483 -33.3045,11.34665 -4.1261,5.00573 -5.0589,10.11308 -5.0589,27.69821 v 15.55718 h -31.8784 -31.8785 z m 238.6623,-228 c -1.0319,-1.2375 -2.9176,-3.41627 -4.1904,-4.8417 -2.063,-2.31023 -2.1803,-2.90757 -1.0809,-5.5 0.8266,-1.94914 1.2477,-9.17453 1.2768,-21.9083 0.036,-16.00558 -0.223,-19.4888 -1.6469,-22.1015 -4.8779,-8.9507 -18.0112,-9.53524 -24.2214,-1.07805 -1.883,2.56442 -2.1008,4.48031 -2.3985,21.10562 -0.3811,21.28368 0.3112,25.03549 5.4529,29.54992 3.2109,2.81925 4.1807,3.13167 9.0242,2.90731 4.4515,-0.20621 5.8192,0.14111 7.6108,1.93266 1.655,1.65504 3.3788,2.18404 7.1168,2.18404 h 4.9327 z m -22.8771,-11.97251 c -1.2672,-1.8092 -1.5567,-5.52844 -1.5567,-20 0,-16.44416 0.15,-17.92749 2,-19.77749 2.3808,-2.38082 6.26,-2.59715 8.3893,-0.46785 2.2742,2.27419 2.736,6.47955 2.4075,21.92359 l -0.2968,13.95575 -5.25,-0.27989 c -5.7814,-0.30821 -6.2543,0.3219 -3.1775,4.23354 1.6594,2.10953 1.7704,2.63486 0.5567,2.63486 -0.8337,0 -2.2163,-1.00013 -3.0725,-2.22251 z m -428.1158,7.14024 c 3.7153,-3.2621 5.5442,-7.92786 5.5535,-14.16773 0.01,-3.70926 -0.038,-3.75 -3.9944,-3.75 h -4 v 4.27749 c 0,5.75459 -2.1894,8.72251 -6.4343,8.72251 -5.5763,0 -6.0286,-1.43006 -6.4014,-20.23726 -0.3649,-18.40903 0.3772,-22.35857 4.3901,-23.36575 5.3572,-1.34459 8.4456,2.00797 8.4456,9.16811 0,3.34072 0.1096,3.4349 4,3.4349 h 4 l -0.022,-4.25 c -0.065,-12.59821 -9.9799,-19.8321 -20.3207,-14.82619 -7.1134,3.44357 -7.6574,5.46992 -7.6574,28.52698 0,21.28535 0.4286,23.38136 5.6149,27.46091 1.9381,1.52451 4.0939,2.0883 7.9852,2.0883 4.5283,0 5.8586,-0.4638 8.8408,-3.08227 z m 17.4264,-0.66773 c 0.5194,-2.0625 1.3412,-5.55 1.8261,-7.75 l 0.8816,-4 h 5.4107 5.4107 l 1.5984,7.5 1.5983,7.5 4.2904,0.31175 c 3.7489,0.2724 4.221,0.0831 3.7401,-1.5 -0.3028,-0.99646 -3.2616,-13.51175 -6.5752,-27.81175 -3.3136,-14.3 -6.2636,-27.0125 -6.5556,-28.25 -0.4019,-1.70325 -1.2459,-2.25 -3.4733,-2.25 -3.4678,0 -2.589,-2.6753 -10.5116,32 -3.0788,13.475 -5.8329,25.2875 -6.1202,26.25 -0.437,1.46354 0.137,1.75 3.5063,1.75 3.821,0 4.0776,-0.19347 4.9733,-3.75 z m 5.1327,-21.17371 c 0,-2.31936 2.4196,-11.07629 3.0604,-11.07629 0.3944,0 1.0228,1.6875 1.3965,3.75 0.3738,2.0625 0.9227,4.7625 1.2197,6 0.4722,1.96661 0.1487,2.25 -2.5682,2.25 -1.7097,0 -3.1084,-0.41567 -3.1084,-0.92371 z m 29,11.92371 v -13 h 8.5 8.5 v -4 -4 h -8.5 -8.5 v -9 -9 h 8.5 8.5 v -4 -4 h -12 -12 v 30 30 h 3.5 3.5 z m 47.8103,9.25 -0.3103,-3.75 -8.25,-0.29044 -8.25,-0.29044 v -8.95956 -8.95956 h 8.5603 8.5604 l -0.3104,-3.75 -0.3103,-3.75 -8.25,-0.29044 -8.25,-0.29044 v -8.95956 -8.95956 h 8.5603 8.5604 l -0.3104,-3.75 -0.3103,-3.75 -12.25,-0.28078 -12.25,-0.28078 v 30.03078 30.03078 h 12.5603 12.5604 z m 38.1897,-9.25 v -13 l 4.75,-0.004 c 5.4234,-0.004 10.1955,-2.45729 12.9456,-6.65454 2.4539,-3.74511 2.4581,-15.52923 0.01,-20.0823 -2.8184,-5.2357 -5.704,-6.48587 -16.2431,-7.03714 l -9.4595,-0.49454 v 30.13626 30.13626 h 4 4 z m 0,-30 v -9 h 3.8088 c 5.5621,0 7.367,1.77507 7.9475,7.81586 0.7089,7.37726 -1.2974,10.18414 -7.2794,10.18414 h -4.4769 z m 31,29.9501 v -13.04991 l 5.75,0.29991 5.75,0.2999 0.2798,12.75 0.2799,12.75 h 3.4701 3.4702 v -30 -30 h -3.5 -3.5 v 13 13 h -6 -6 v -13 -13 h -4 -4 v 30 30 h 4 4 z m 35.7648,-16.7001 -0.2648,-29.75 -3.75,-0.31037 -3.75,-0.31036 v 30.06036 30.06037 h 4.0148 4.0149 z m 32.2352,26.32507 v -3.42492 l -9,-0.70406 -9,-0.70406 v -25.87101 -25.87102 h -4 -4 v 30 30 h 13 13 z m 24.7014,1.46541 c 5.7965,-3.53429 6.2986,-5.74699 6.2986,-27.75642 0,-17.28113 -0.2337,-20.25099 -1.8273,-23.2224 -5.1441,-9.59175 -19.3142,-9.00605 -24.4212,1.00942 -1.4771,2.8969 -1.7487,6.28915 -1.75,21.8632 -0,20.45728 1.0197,24.75903 6.717,28.28911 3.7796,2.34182 10.9865,2.25384 14.9829,-0.18291 z m -12.6663,-7.97474 c -0.604,-1.12858 -1.0351,-9.45917 -1.0351,-20 0,-16.73241 0.1476,-18.21335 2,-20.06574 2.4958,-2.49581 6.173,-2.57127 8.345,-0.17126 1.4126,1.56094 1.655,4.49935 1.655,20.06574 0,10.65888 -0.4302,19.04076 -1.0352,20.17126 -0.7539,1.40858 -2.1032,1.93426 -4.9648,1.93426 -2.8617,0 -4.211,-0.52568 -4.9649,-1.93426 z m 45.5449,8.04858 c 4.8237,-2.94151 6.993,-8.82763 6.5708,-17.82952 -0.2062,-4.39544 -5.1156,-9.7334 -12.2765,-13.34825 -6.5326,-3.29765 -7.8743,-5.1178 -7.8743,-10.68225 0,-6.82727 6.3865,-10.79959 10.3399,-6.43122 0.9074,1.0027 1.9383,3.9277 2.2909,6.5 0.6405,4.67347 0.6439,4.67692 4.5989,4.67692 h 3.9579 l -0.6807,-5.25 c -0.9362,-7.21993 -3.366,-11.74534 -7.5069,-13.98115 -4.2577,-2.29886 -10.7838,-1.77107 -14.9715,1.2108 -5.2998,3.77381 -7.6141,14.33843 -4.6666,21.30247 1.7224,4.06919 4.3945,6.44604 11.4875,10.21788 7.1923,3.82467 8.8552,6.87448 6.9795,12.8009 -1.1984,3.78669 -1.6727,4.22473 -4.8289,4.46009 -5.0572,0.37711 -6.3612,-0.92447 -6.9669,-6.95404 -0.5325,-5.3011 -0.5373,-5.30729 -4.2831,-5.61732 l -3.75,-0.31036 v 4.54013 c 0,6.30386 2.658,12.40096 6.4012,14.68355 4.0332,2.45941 11.1556,2.46474 15.1788,0.0114 z m 33.4849,-0.67306 c 5.0195,-4.54262 5.4351,-6.64072 5.4351,-27.44126 0,-17.70437 -0.1842,-19.81188 -2,-22.8869 -4.0064,-6.7846 -13.4721,-8.9823 -20.0694,-4.65961 -5.2367,3.43122 -6.385,8.28168 -6.4031,27.04651 -0.01,9.35 0.442,18.65048 1.0023,20.66773 0.5826,2.09759 2.5746,5.03379 4.6531,6.85872 3.37,2.95895 4.0563,3.16046 9.4382,2.77117 3.8846,-0.28099 6.5115,-1.06021 7.9438,-2.35636 z m -13.4699,-7.60907 c -1.3148,-1.87715 -1.595,-5.40026 -1.595,-20.0547 0,-16.44416 0.15,-17.92749 2,-19.77749 2.3429,-2.34295 5.8236,-2.57985 8.5588,-0.58252 1.777,1.2976 1.9639,2.92556 2.2099,19.25 0.3119,20.69321 -0.1922,22.65445 -5.9467,23.13722 -2.8519,0.23926 -3.9746,-0.18439 -5.227,-1.97251 z m 31.405,-2.83219 v -13 l 4.75,-0.004 c 5.319,-0.004 10.1881,-2.44604 12.7872,-6.41277 2.7261,-4.16056 3.0611,-13.44236 0.6795,-18.82637 -2.9575,-6.68588 -5.7341,-8.09984 -16.8619,-8.58653 l -9.3548,-0.40889 v 30.11928 30.11928 h 4 4 z m 0,-30 v -9 h 3.8088 c 5.5621,0 7.367,1.77507 7.9475,7.81586 0.7089,7.37726 -1.2974,10.18414 -7.2794,10.18414 h -4.4769 z m 31,30 v -13 h 5.5 5.5 v 13 13 h 4 4 v -30.06037 -30.06036 l -3.75,0.31036 -3.75,0.31037 -0.2799,12.75 -0.2799,12.75 h -5.4701 -5.4701 v -13 -13 h -4 -4 v 30 30 h 4 4 z m 35.7648,-16.75 -0.2648,-29.75 -3.75,-0.31037 -3.75,-0.31036 v 30.06036 30.06037 h 4.0148 4.0149 z m 59.3634,28.18368 c 1.8149,-0.93852 3.7903,-3.24318 4.9284,-5.75 1.6964,-3.73651 1.9018,-6.77561 1.9214,-28.43368 l 0.022,-24.25 h -4 -4 v 24.06574 c 0,14.67678 -0.4039,24.82037 -1.0352,26 -0.7146,1.33513 -2.0975,1.93426 -4.4648,1.93426 -2.3674,0 -3.7503,-0.59913 -4.4649,-1.93426 -0.6313,-1.17963 -1.0351,-11.32322 -1.0351,-26 v -24.06574 h -4.0474 -4.0473 l 0.2973,25.92905 c 0.2811,24.51296 0.4119,26.08312 2.3938,28.75 1.153,1.55152 3.178,3.37682 4.5,4.05621 3.3278,1.71026 9.4137,1.56943 13.0318,-0.30158 z m 37.6821,-2.18368 -0.3103,-3.75 -8.25,-0.29044 -8.25,-0.29044 v -8.95956 -8.95956 h 8.5 8.5 v -4 -4 h -8.5 -8.5 v -9 -9 h 8.5 8.5 v -4 -4 h -12.5 -12.5 v 30 30 h 12.5603 12.5604 z m -255.8266,-119.9266 c 4.6135,-14.08623 10.5059,-25.65512 15.725,-30.87428 4.0052,-4.00514 4.9189,-4.44912 9.1559,-4.44912 4.4421,0 5.2389,0.45523 14.171,8.09618 21.7602,18.61454 44.1296,29.64602 71.2015,35.11293 14.6535,2.95914 41.4047,3.17796 55.1089,0.4508 62.1242,-12.36285 108.5903,-59.51569 119.7823,-121.55248 2.9117,-16.13943 2.2506,-42.43571 -1.4637,-58.21865 -6.8361,-29.04847 -20.6836,-53.09542 -42.8941,-74.48796 -21.2947,-20.51052 -46.6715,-33.49697 -76.2705,-39.03112 -13.4387,-2.51263 -40.1475,-2.50607 -52.9638,0.013 -26.3704,5.18323 -49.6428,16.37857 -70.1797,33.76036 -27.9843,23.68509 -47.1705,59.94056 -50.9915,96.35692 l -0.7345,7 -1.6921,-11 c -2.9182,-18.97046 -6.9851,-31.78013 -15.1869,-47.83507 -20.5354,-40.19753 -57.459,-68.0736 -103.1038,-77.84 -14.8465,-3.17664 -42.7501,-3.15672 -57.6477,0.0412 -52.7613,11.32553 -94.3599,47.55084 -111.8874,97.43492 -7.7572,22.07712 -10.1338,49.75826 -6.2307,72.57031 3.7041,21.64898 11.7166,41.80229 23.8638,60.02306 7.8167,11.72503 28.1174,31.95777 39.6862,39.55331 16.8782,11.08149 35.9208,18.90414 56.5681,23.23807 11.9079,2.49951 41.0574,2.50369 53,0.008 28.0686,-5.86656 52.0147,-17.27597 71.1679,-33.90873 10.2057,-8.86315 11.7366,-9.78505 16.248,-9.78505 8.1304,0 17.7383,13.94178 25.0314,36.32249 2.8001,8.59275 4.5818,15.68408 9.2156,36.67751 0.3846,1.74243 1.6959,-2.09891 4.3276,-12.6766 2.0767,-8.34713 5.2236,-19.59713 6.9932,-25 z M 1626.777,446.88392 c -17.7141,-5.3593 -33.2059,-18.17694 -40.858,-33.80534 -5.6034,-11.44413 -7.2114,-18.33693 -7.2114,-30.91333 0,-12.68185 1.6255,-19.58222 7.3024,-31 3.224,-6.48418 6.0161,-10.27866 11.7736,-16 13.6021,-13.51685 26.2157,-19.05684 44.9961,-19.76277 8.3482,-0.3138 13.3766,0.008 18.3473,1.17343 13.6377,3.19806 29.3784,13.24633 37.4058,23.87854 28.3337,37.52775 12.4495,90.4706 -31.7531,105.83486 -9.8642,3.42865 -29.6626,3.72294 -40.0027,0.59461 z m 26.3878,-53.80697 c 10.62,-8.35372 5.1201,-23.9117 -8.4531,-23.9117 -3.5075,0 -4.782,0.61471 -8.0497,3.88235 -3.521,3.52104 -3.8823,4.36958 -3.8823,9.11765 0,4.74807 0.3613,5.59661 3.8823,9.11765 3.471,3.47093 4.4104,3.88235 8.8652,3.88235 3.5388,0 5.7521,-0.60517 7.6376,-2.0883 z m 272.6095,54.21123 c -34.404,-9.29068 -56.0521,-44.81235 -48.4044,-79.42552 4.4139,-19.97734 17.5899,-36.76484 35.9098,-45.75268 10.7707,-5.28419 17.9392,-6.94473 29.9802,-6.94473 34.3532,0 61.7845,24.24142 66.6909,58.93582 4.5907,32.46192 -18.0058,65.28887 -50.6312,73.55424 -8.1801,2.07234 -25.2016,1.88605 -33.5453,-0.36713 z m 24.3104,-53.98563 c 5.8553,-3.86069 7.6988,-9.58803 5.1425,-15.97683 -4.47,-11.17156 -20.4501,-10.76439 -24.4167,0.62213 -1.2922,3.70946 -1.2922,4.72534 0,8.4348 2.7223,7.81453 12.5604,11.34666 19.2742,6.9199 z m -150.8545,-88.43668 c 11.8102,-40.44715 47.0602,-72.85396 88.3451,-81.21933 4.3497,-0.88138 12.5877,-1.92099 18.3065,-2.31025 l 10.3979,-0.70774 -7.2276,-2.2536 c -19.282,-6.01233 -48.0521,-11.70575 -72.7724,-14.40123 -15.9178,-1.73566 -69.1199,-1.72771 -85,0.0127 -24.8174,2.71989 -53.4752,8.39688 -71,14.06478 l -9,2.91079 7,0.10753 c 30.3333,0.46594 59.517,12.86757 81.1226,34.47313 18.4368,18.43685 29.8594,41.37222 33.5367,67.33836 l 1.244,8.78424 1.2389,-9 c 0.6814,-4.95 2.3951,-12.95972 3.8083,-17.79938 z m -300.3567,11.79938 c 8.8757,-20.76903 19.0858,-35.67494 34.6695,-50.61452 15.0149,-14.39416 31.3773,-24.79153 50.9556,-32.3793 3.9704,-1.53877 7.025,-3.11153 6.788,-3.49502 -0.2371,-0.38349 -3.9356,-1.78039 -8.219,-3.10421 -7.6582,-2.36687 -8.432,-2.40695 -46.4641,-2.40695 -37.543,0 -38.7589,0.0607 -41.5,2.07108 -6.1993,4.54673 -6.3206,5.39169 -6.3223,44.04243 -8e-4,19.475 0.4491,37.51249 1.0103,40.5 1.2288,6.54146 3.9738,16.23665 4.4575,15.74398 0.1931,-0.19662 2.2741,-4.85749 4.6245,-10.35749 z m 598.9397,-0.13107 c 1.7821,-6.96816 1.9661,-11.16541 1.9627,-44.77889 -0,-35.24623 -0.1025,-37.25206 -1.9908,-40.34918 -1.093,-1.79253 -3.4538,-4.16955 -5.2463,-5.28226 -3.1492,-1.95486 -4.5582,-2.01232 -41.7591,-1.70294 -37.0574,0.30819 -38.7623,0.40658 -45.5,2.62581 -3.85,1.26809 -7.3593,2.64529 -7.7984,3.06045 -0.4391,0.41515 2.0359,1.77213 5.5,3.01549 10.1256,3.63436 28.7252,13.62399 37.3348,20.05203 21.9693,16.40264 39.4135,38.7898 49.6529,63.7226 4.7335,11.52607 4.8043,11.52279 7.8442,-0.36311 z"
     style="fill:#c36977" />
  <path
     inkscape:connector-curvature="0"
     id="path160"
     d="m 1763.7797,877.49716 c 0,-15.17723 -1.406,-22.93419 -5.3443,-29.48518 -4.0617,-6.75619 -9.3198,-9.52047 -21.7971,-11.4592 -31.1382,-4.83828 -42.5103,-6.95174 -58.4988,-10.87176 -116.0509,-28.4531 -215.0752,-97.10344 -279.8568,-194.01577 -46.4067,-69.42375 -71.1803,-146.4058 -74.1053,-230.27674 -1.6091,-46.13856 5.946,-118.4061 21.6636,-207.22326 7.5843,-42.85715 23.9838,-125.378476 25.1479,-126.542556 0.5975,-0.59753 136.0509,-20.347767 568.783,-82.933342 138.3207,-20.005174 251.6165,-36.248671 251.7685,-36.096661 1.0532,1.053183 24.6243,108.675793 34.73,158.572559 26.0871,128.80541 38.5093,219.47737 38.5093,281.08772 0,103.54254 -36.8506,203.44538 -104.9094,284.41228 -10.3982,12.37036 -34.4227,36.83049 -47.0906,47.9445 -58.8753,51.65336 -128.398,87.5681 -205,105.90093 -12.4513,2.9799 -27.6166,5.84423 -45.5906,8.61083 -16.317,2.51155 -22.3288,4.42693 -27.3292,8.7071 -5.9978,5.13385 -7.3209,10.36286 -7.4628,29.4928 l -0.1174,15.84203 -31.75,9e-4 -31.75,9.1e-4 z m 238.4338,-231.58191 c -1.0319,-1.2375 -2.942,-3.44172 -4.2446,-4.89827 -2.1139,-2.36362 -2.2245,-2.90104 -1.0289,-5 0.9933,-1.74375 1.3397,-7.39292 1.3397,-21.85173 0,-17.79489 -0.1779,-19.80605 -2.0341,-23 -5.5414,-9.53531 -19.6171,-8.92529 -24.7144,1.07108 -1.4756,2.89384 -1.7487,6.28185 -1.75,21.71104 -0,20.28258 0.5873,23.01122 5.9392,27.51457 2.6787,2.25401 4.1714,2.70331 8.981,2.70331 4.4983,0 6.1668,0.44034 7.5783,2 1.3502,1.492 3.0799,2 6.8099,2 h 5 z m -22.8771,-11.97251 c -1.2672,-1.8092 -1.5567,-5.52844 -1.5567,-20 0,-16.44416 0.15,-17.92749 2,-19.77749 2.0779,-2.07793 5.5394,-2.57841 7.8223,-1.13098 0.7273,0.46112 1.729,2.59173 2.2261,4.73469 0.9569,4.12487 1.3066,28.30455 0.4421,30.5645 -0.365,0.95432 -2.1218,1.23145 -6.198,0.97776 l -5.6886,-0.35403 2.7489,3.60403 c 2.0118,2.63752 2.3482,3.60403 1.2548,3.60403 -0.8218,0 -2.1947,-1.00013 -3.0509,-2.22251 z m -429.4398,8.49435 c 3.8409,-2.26889 6.8831,-8.71619 6.8831,-14.58756 v -4.68428 h -4 -4 v 4.27749 c 0,5.75459 -2.1894,8.72251 -6.4343,8.72251 -5.5876,0 -6.008,-1.37095 -6.4067,-20.89244 -0.3441,-16.84589 -0.2656,-17.72652 1.8132,-20.35756 4.3613,-5.51962 10.0233,-2.85172 10.7857,5.08213 l 0.4965,5.16787 h 4.0117 4.0116 l -0.5401,-5.95698 c -0.6356,-7.00933 -3.4477,-11.60609 -8.3542,-13.65616 -6.7993,-2.84094 -13.8016,-0.66702 -17.6177,5.4696 -2.1548,3.46517 -2.2646,4.59816 -2.2419,23.14354 0.026,21.25328 0.5233,23.53214 6.091,27.9117 3.3703,2.65105 11.3116,2.83554 15.5021,0.36014 z m 18.8119,-2.02184 c 0.5533,-2.0625 1.3763,-5.55 1.8289,-7.75 0.8206,-3.98828 0.8381,-4.00088 5.9805,-4.30045 l 5.1575,-0.30045 0.958,3.80045 c 0.5269,2.09025 1.3524,5.60045 1.8344,7.80045 0.8413,3.83947 1.0492,4.01251 5.1811,4.31175 3.7587,0.2722 4.2367,0.0819 3.768,-1.5 -0.2952,-0.99646 -3.282,-13.73675 -6.6372,-28.31175 -3.3553,-14.575 -6.3414,-27.31314 -6.6357,-28.30698 -0.3951,-1.33366 -1.3416,-1.72657 -3.6136,-1.5 l -3.0784,0.30698 -6.8168,29.5 c -3.7492,16.225 -6.8255,29.6125 -6.8362,29.75 -0.011,0.1375 1.7633,0.25 3.9421,0.25 3.7322,0 4.0197,-0.21704 4.9674,-3.75 z m 5.3945,-22.5 c 0.2971,-1.2375 0.8522,-3.97111 1.2337,-6.0747 0.8264,-4.55719 1.768,-3.84039 3.307,2.51752 1.4847,6.13332 1.5954,5.80718 -1.9724,5.80718 -2.717,0 -3.0404,-0.28339 -2.5683,-2.25 z m 28.6767,13.25 v -13 h 9.0603 9.0604 l -0.3104,-3.75 -0.3103,-3.75 -8.75,-0.28893 -8.75,-0.28894 v -8.92213 -8.92213 l 8.75,-0.28894 8.75,-0.28893 v -3.5 -3.5 h -12.5 -12.5 l -0.2649,29.75 -0.2649,29.75 h 4.0149 4.0149 z m 47.8103,9.25 -0.3103,-3.75 -8.25,-0.29044 -8.25,-0.29044 v -8.95956 -8.95956 h 8.5603 8.5604 l -0.3104,-3.75 -0.3103,-3.75 -8.25,-0.29044 -8.25,-0.29044 v -8.95956 -8.95956 h 8.5 8.5 v -4 -4 h -12.5 -12.5 v 30 30 h 12.5603 12.5604 z m 38.1897,-9.12981 v -12.87981 l 6.1449,-0.44448 c 5.51,-0.39856 6.4837,-0.81417 9.4241,-4.02269 5.4957,-5.9968 5.9088,-18.67505 0.8061,-24.7392 -3.0844,-3.6656 -7.701,-5.02118 -17.1251,-5.02843 l -7.25,-0.006 v 30 30 h 4 4 z m 0,-30.25024 v -9.13005 l 4.5869,0.51701 c 5.8094,0.65481 6.5856,1.48379 7.1799,7.66796 0.6975,7.25948 -1.3398,10.07513 -7.2899,10.07513 h -4.4769 z m 31,30.13005 v -13 h 5.5 5.5 v 13 13 h 4.5148 4.5149 l -0.2649,-29.75 -0.2648,-29.75 h -4 -4 l -0.2799,12.75 -0.2799,12.75 h -5.4701 -5.4701 v -13 -13 h -4 -4 v 30 30 h 4 4 z m 36,-17 v -30 h -4 -4 v 30 30 h 4 4 z m 32,26 v -4 h -9 -9 v -26 -26 h -4 -4 v 30 30 h 13 13 z m 23.9699,2.72069 c 1.3585,-0.68741 3.496,-2.77232 4.75,-4.63314 2.1905,-3.2504 2.2799,-4.19269 2.2763,-23.98543 -0,-18.39283 -0.2051,-20.93241 -1.8819,-23.68216 -3.8624,-6.33379 -13.8843,-8.17134 -20.0278,-3.67211 -5.3863,3.9448 -6.0833,7.05862 -6.085,27.18643 -0,20.45728 1.0197,24.75903 6.717,28.28911 3.2649,2.02291 10.7222,2.28313 14.2514,0.4973 z m -11.3149,-8.54943 c -1.4122,-1.56043 -1.655,-4.49478 -1.655,-20 0,-16.83793 0.1467,-18.31801 2,-20.17126 2.4958,-2.49581 6.173,-2.57127 8.345,-0.17126 1.4126,1.56094 1.655,4.49935 1.655,20.06574 0,10.65888 -0.4302,19.04076 -1.0352,20.17126 -1.3623,2.54543 -7.0435,2.60982 -9.3098,0.10552 z m 45.0464,7.86922 c 7.8477,-4.78503 9.2514,-18.26651 2.6287,-25.24661 -1.5566,-1.64057 -5.4007,-4.28826 -8.5425,-5.88375 -6.2361,-3.16686 -7.7876,-5.14131 -7.7876,-9.91012 0,-5.38021 2.6244,-8.95567 6.595,-8.98469 3.0451,-0.0222 5.0653,2.82443 5.8439,8.23469 l 0.6836,4.75 h 4.0676 4.0675 l -0.6855,-5.16784 c -1.3765,-10.37673 -5.0091,-14.71603 -13.0061,-15.53644 -13.335,-1.36804 -20.9919,18.06757 -11.2494,28.55451 1.2008,1.29263 4.6853,3.61841 7.7432,5.1684 6.936,3.51573 8.2129,5.04076 8.2129,9.80908 0,5.69681 -1.7123,8.17229 -5.6529,8.17229 -4.3364,0 -6.4046,-2.43363 -6.8002,-8.00181 -0.3134,-4.40991 -0.3932,-4.50428 -4.0696,-4.80856 l -3.75,-0.31036 v 5.15924 c 0,9.96042 5.2595,15.95401 14,15.95401 2.7031,0 5.7783,-0.77946 7.7014,-1.95204 z m 32.6837,-0.12878 c 5.629,-4.42778 6.1149,-6.64551 6.1149,-27.9117 0,-17.79489 -0.1779,-19.80605 -2.0341,-23 -3.8919,-6.69692 -13.4449,-8.86473 -20.0353,-4.54651 -5.2367,3.43122 -6.385,8.28168 -6.4031,27.04651 -0.01,9.35 0.442,18.65048 1.0023,20.66773 0.5715,2.05749 2.56,5.02095 4.5293,6.75 2.9822,2.61847 4.3125,3.08227 8.8408,3.08227 3.8913,0 6.0471,-0.56379 7.9852,-2.0883 z m -12.7901,-8.07951 c -1.3148,-1.87715 -1.595,-5.40026 -1.595,-20.0547 0,-16.44416 0.15,-17.92749 2,-19.77749 2.0315,-2.03154 5.5325,-2.58457 7.6874,-1.21434 2.5225,1.60394 3.3121,6.87834 3.2978,22.02944 -0.017,18.34175 -0.6591,20.52784 -6.1632,20.9896 -2.8519,0.23926 -3.9746,-0.18439 -5.227,-1.97251 z m 31.405,-2.712 v -12.87981 l 6.1449,-0.44448 c 5.51,-0.39856 6.4837,-0.81417 9.4241,-4.02269 5.4957,-5.9968 5.9088,-18.67505 0.8061,-24.7392 -3.0844,-3.6656 -7.701,-5.02118 -17.1251,-5.02843 l -7.25,-0.006 v 30 30 h 4 4 z m 0,-30.12019 v -9 h 3.8088 c 6.087,0 7.6912,1.82834 7.6912,8.76569 0,7.48932 -1.3459,9.23431 -7.1225,9.23431 h -4.3775 z m 31,30 v -13 h 5.5 5.5 v 13 13 h 4 4 v -30.06037 -30.06036 l -3.75,0.31036 -3.75,0.31037 -0.2799,12.75 -0.2799,12.75 h -5.4701 -5.4701 v -13 -13 h -4 -4 v 30 30 h 4 4 z m 36,-17 v -30 h -4 -4 v 30 30 h 4 4 z m 59.8857,28.3675 c 1.2819,-0.89788 3.1721,-3.48538 4.2005,-5.75 1.6596,-3.6545 1.8723,-6.84437 1.8918,-28.3675 l 0.022,-24.25 h -4 -4 v 23.4349 c 0,12.8892 -0.4389,24.5892 -0.9753,26 -0.7897,2.0771 -1.6391,2.5651 -4.4648,2.5651 -2.4266,0 -3.8049,-0.58921 -4.5248,-1.93426 -0.6313,-1.17963 -1.0351,-11.32322 -1.0351,-26 v -24.06574 h -4 -4 v 24.53212 c 0,26.70036 0.4307,29.30173 5.5136,33.29998 3.4396,2.70555 11.8553,2.99866 15.3721,0.5354 z m 37.1143,-2.3675 v -4 h -8.5 -8.5 v -9 -9 h 8.5 8.5 v -4 -4 h -8.5 -8.5 v -9 -9 h 8.5 8.5 v -4 -4 h -12.5 -12.5 v 30 30 h 12.5 12.5 z M 1804.7618,520.63231 c 7.8182,-23.67282 16.061,-35.44304 24.8336,-35.46047 4.1977,-0.008 6.678,1.27104 11.6843,6.02693 18.0374,17.13521 45.8064,31.30825 72.8116,37.16231 13.6303,2.95473 42.476,3.18698 56.1521,0.45211 60.7703,-12.15254 106.1198,-56.91691 119.21,-117.67188 2.6004,-12.06906 2.6085,-45.80749 0.014,-57.97606 -6.1907,-29.03423 -19.8769,-54.55828 -40.3486,-75.24787 -22.3979,-22.63637 -47.4462,-36.10281 -78.8753,-42.40495 -13.5178,-2.71057 -42.4415,-2.47474 -56.0678,0.45717 -40.7539,8.76883 -73.9975,31.43624 -96.348,65.69565 -12.3013,18.85584 -20.6875,42.58603 -22.7941,64.5 l -0.6248,6.5 -1.7837,-12 c -7.318,-49.23486 -38.7689,-92.05372 -82.9452,-112.92593 -11.7762,-5.564 -21.4756,-8.81605 -34.9001,-11.7015 -15.0527,-3.23539 -43.8327,-3.264 -58.6884,-0.0583 -21.2539,4.58631 -42.7041,14.2729 -59.3151,26.7858 -11.4542,8.62828 -26.4914,24.0607 -33.8257,34.71469 -10.7936,15.67883 -19.4295,36.21747 -23.8446,56.70921 -2.6033,12.08249 -2.5843,43.89626 0.034,55.97606 6.9289,31.97393 19.2409,54.7938 41.5616,77.03259 21.9519,21.87145 45.3634,34.65415 75.3903,41.16324 13.6303,2.95473 42.4761,3.18698 56.1521,0.45211 25.1488,-5.02914 48.2773,-15.61107 66.3567,-30.36018 4.5763,-3.73327 10.1238,-8.25026 12.3278,-10.03776 8.6936,-7.05069 16.825,-2.67215 25.1916,13.56497 2.4614,4.77677 6.0479,13.41003 7.97,19.18503 3.4511,10.36854 8.6902,31.89364 8.6902,35.70374 0,5.89312 1.8405,1.73511 5.0622,-11.43633 1.9956,-8.15831 5.1095,-19.31847 6.9199,-24.80035 z M 1629.696,447.6429 c -23.5683,-5.72246 -42.6183,-24.36087 -48.9742,-47.91628 -3.0456,-11.28707 -2.4493,-29.84947 1.2786,-39.80292 3.7935,-10.12867 8.5102,-17.42229 16.3128,-25.22488 8.022,-8.02191 15.1015,-12.52684 25.6315,-16.31002 6.5689,-2.36001 8.7972,-2.63987 21.335,-2.6794 15.0934,-0.0476 19.1664,0.81843 30.5066,6.48658 32.9693,16.47893 46.4914,57.18702 29.933,90.1128 -4.2009,8.35323 -11.607,17.58509 -18.1682,22.64705 -6.3807,4.92267 -18.1069,10.59001 -26.2315,12.67783 -7.3252,1.88238 -23.889,1.88722 -31.6236,0.009 z m 24.7271,-55.78968 c 2.9994,-2.74872 3.6923,-4.15186 4.0744,-8.25 0.7929,-8.50463 -4.7538,-14.39342 -13.5855,-14.42323 -3.7497,-0.0127 -4.9169,0.53452 -8.25,3.86761 -2.1508,2.15085 -3.9317,4.93831 -3.993,6.25 -0.4801,10.26959 4.1807,15.78969 13.3754,15.84104 4.0192,0.0224 5.33,-0.49152 8.3787,-3.28542 z m 272.3566,55.74104 c -10.4353,-2.73095 -21.6882,-9.11014 -29.8858,-16.94204 -8.8148,-8.42162 -14.071,-16.6799 -17.813,-27.98697 -2.2427,-6.77663 -2.6593,-9.83505 -2.7244,-20 -0.1293,-20.19662 5.205,-33.26358 19.4151,-47.5593 13.6521,-13.73427 28.4387,-19.9407 47.5081,-19.9407 18.6598,0 33.4107,6.12209 47.0655,19.53373 6.8906,6.76786 8.8934,9.52532 12.7105,17.5 5.7625,12.03883 7.1572,18.03887 7.0821,30.46627 -0.1137,18.80629 -6.3244,33.5378 -19.8252,47.02462 -13.5704,13.55633 -28.344,19.5374 -47.9429,19.40957 -5.5495,-0.0362 -12.565,-0.71353 -15.59,-1.50518 z m 23.58,-54.31469 c 3.1496,-1.92063 6.4374,-7.45267 6.398,-10.76545 -0.044,-3.71427 -3.8254,-10.21858 -6.8498,-11.78255 -7.4415,-3.84817 -16.4256,-0.45337 -19.0974,7.21628 -1.2922,3.70946 -1.2922,4.72534 0,8.4348 2.7438,7.87647 12.3723,11.27338 19.5492,6.89692 z M 1798.8008,306.2976 c 2.9122,-10.69649 11.5773,-28.17053 18.6613,-37.63235 15.7984,-21.10139 39.247,-36.9966 64.2468,-43.55135 7.3375,-1.92385 20.3172,-3.70983 30.5708,-4.20647 4.8351,-0.2342 4.5714,-0.36504 -8,-3.96942 -38.6842,-11.09114 -75.1948,-15.47498 -120.5,-14.46845 -39.799,0.88419 -73.0379,5.92281 -105.5,15.99253 l -7,2.17139 10.6767,0.67757 c 13.4084,0.85094 22.6542,2.75067 35.186,7.22971 40.7504,14.56478 69.6539,50.84025 75.793,95.12449 l 1.2476,9 1.27,-9.36765 c 0.6984,-5.15221 2.205,-12.80221 3.3478,-17 z m -301.167,13.64 c 6.7412,-18.37687 18.384,-36.06879 34.1116,-51.83475 15.8312,-15.86986 31.9022,-26.34929 52.8781,-34.48043 6.3959,-2.47931 7.1234,-3.00794 5.6363,-4.09534 -0.9391,-0.68672 -5.6496,-2.17406 -10.4676,-3.3052 -7.9868,-1.87508 -11.9362,-2.05663 -44.7384,-2.05663 -50.6832,0 -46.4715,-4.62175 -46.0196,50.5 0.3077,37.5346 0.4058,39.25821 2.6105,45.87211 1.2599,3.77965 2.6501,6.47965 3.0894,6 0.4392,-0.47966 1.7441,-3.44955 2.8997,-6.59976 z m 600.1794,-3.40342 c 1.7821,-6.96816 1.9661,-11.16541 1.9627,-44.77889 -0,-35.24623 -0.1025,-37.25206 -1.9908,-40.34918 -1.093,-1.79253 -3.4538,-4.16711 -5.2463,-5.27685 -3.1449,-1.94696 -4.6091,-2.00707 -41.7591,-1.71422 -37.1494,0.29285 -38.7456,0.38478 -45.5,2.6204 -3.85,1.2743 -7.3631,2.66038 -7.8069,3.08018 -0.4437,0.4198 2.0313,1.80322 5.5,3.07427 20.4515,7.49397 37.3278,18.4397 53.8739,34.94176 16.4111,16.36736 26.846,32.17878 34.5605,52.3674 3.0584,8.00378 3.3988,7.79311 6.406,-3.96487 z"
     style="fill:#b95061" />
  <path
     inkscape:connector-curvature="0"
     id="path158"
     d="m 1763.5355,873.41525 c -0.5167,-16.8438 -1.6244,-21.76673 -6.2671,-27.85372 -4.3306,-5.67767 -10.9765,-7.97094 -31.4887,-10.86564 -103.4896,-14.60457 -196.635,-60.56814 -269.5872,-133.03064 -45.46,-45.15478 -78.7179,-95.36495 -101.7509,-153.6155 -20.7853,-52.56601 -30.0639,-102.37557 -29.9699,-160.8845 0.091,-56.48076 8.6935,-126.61131 28.2136,-230 6.0298,-31.93708 17.6608,-88.899786 18.2782,-89.517136 0.3753,-0.37533 263.4306,-38.751019 466.3162,-68.02830376 32.45,-4.68267804 125.375,-18.11802824 206.5,-29.85633224 81.125,-11.738305 147.6429,-21.219478 147.8177,-21.069273 0.603,0.518373 24.0276,107.072819 31.5403,143.471049 21.7583,105.417586 33.8472,181.314756 39.82,249.999996 1.6715,19.221 1.6629,72.1478 -0.014,87 -2.1021,18.61773 -5.1074,37.56248 -8.2469,51.98688 -31.5396,144.90982 -136.4878,266.52235 -279.417,323.78446 -34.6565,13.88451 -66.941,22.60859 -108.2602,29.25462 -23.026,3.70364 -27.2257,5.02989 -32.7369,10.33812 -5.612,5.40541 -6.44,8.67383 -7.1908,28.38592 l -0.619,16.25 h -31.2271 -31.2271 z m 239.1412,-227 c -0.7414,-0.9625 -2.5548,-3.18069 -4.0299,-4.92932 -2.6253,-3.1122 -2.6504,-3.27052 -1.1872,-7.5 1.1637,-3.36402 1.4199,-8.19543 1.1573,-21.82068 -0.3805,-19.74599 -1.3226,-22.89427 -7.8713,-26.30538 -4.7628,-2.48088 -12.1269,-1.81563 -15.6274,1.41172 -4.7473,4.37687 -5.3385,7.37193 -5.3385,27.04582 0,16.46836 0.2017,18.63314 2.1024,22.55939 2.5943,5.35908 6.1254,7.28845 13.3394,7.28845 4.4582,0 5.7853,0.39089 6.7902,2 0.9977,1.59754 2.3321,2 6.631,2 4.9724,0 5.2793,-0.13314 4.034,-1.75 z m -23.3403,-12.47251 c -2.1329,-3.04508 -2.3012,-36.37706 -0.1983,-39.25303 1.6311,-2.23058 7.101,-2.49423 9.1521,-0.44113 1.8163,1.81806 3.0042,17.92479 2.0638,27.98306 l -0.695,7.43361 -5.6377,-0.35403 -5.6377,-0.35403 2.7489,3.60403 c 2.0118,2.63752 2.3482,3.60403 1.2548,3.60403 -0.8218,0 -2.1947,-1.00013 -3.0509,-2.22251 z m -411.7947,9.97251 c 0.5539,-0.6875 1.321,-2.825 1.7047,-4.75 2.2201,-11.1379 2.1254,-11 7.5528,-11 4.5729,0 4.9893,0.20558 5.5699,2.75 3.0913,13.54792 2.6323,12.72129 7.2516,13.05915 3.9673,0.29018 4.1931,0.16739 3.6786,-2 -0.3015,-1.27003 -3.0341,-13.10915 -6.0725,-26.30915 -7.938,-34.48609 -6.974,-31.67519 -10.7372,-31.30929 l -3.1811,0.30929 -6.73,29 c -3.7015,15.95 -6.5347,29.5625 -6.2958,30.25 0.2388,0.6875 1.7432,1.25 3.3431,1.25 1.6,0 3.3621,-0.5625 3.9159,-1.25 z m 6.2803,-24.5 c 0.023,-0.4125 0.6435,-3.225 1.3781,-6.25 1.3714,-5.64661 1.6799,-5.51515 3.5195,1.5 1.4408,5.49432 1.4388,5.5 -1.9399,5.5 -1.65,0 -2.981,-0.3375 -2.9577,-0.75 z m 29.1786,12.5 0.2791,-13.25 8.808,-0.28978 8.808,-0.28978 -0.308,-3.71022 -0.308,-3.71022 -8.75,-0.28893 -8.75,-0.28894 v -8.96106 -8.96107 h 9.0603 9.0604 l -0.3104,-3.75 -0.3103,-3.75 -12.75,-0.27988 -12.75,-0.27987 v 29.86321 c 0,16.42476 0.3,30.16321 0.6666,30.52987 0.3667,0.36667 2.1536,0.66667 3.971,0.66667 h 3.3043 z m 47.5866,8.5 0.3075,-4.25 h -8.5575 -8.5575 v -9 -9 h 8.5 8.5 v -4 -4 h -8.5 -8.5 v -9 -9 h 8.5 8.5 v -4 -4 h -12.5 -12.5 v 30.53078 30.53078 l 12.25,-0.28078 12.25,-0.28078 z m 37.9707,-8.88185 0.2782,-13.13185 5.9728,-0.43203 c 4.87,-0.35227 6.5223,-0.95845 8.9487,-3.2831 3.9837,-3.81667 5.3904,-8.52272 4.7287,-15.82006 -0.9829,-10.83971 -6.0886,-14.69704 -19.4566,-14.69956 l -8.25,-0.002 v 29.83333 c 0,16.40834 0.3213,30.15466 0.714,30.5474 0.3928,0.39273 2.0803,0.58023 3.75,0.41666 l 3.036,-0.29739 z m 0.2218,-30.4982 v -9.13005 l 4.5869,0.51701 c 2.5229,0.28436 5.1029,1.03289 5.7334,1.66339 0.6305,0.6305 1.1463,3.87313 1.1463,7.20583 0,7.07897 -1.5489,8.87387 -7.6578,8.87387 l -3.8088,0 z m 30.779,30.38005 0.279,-13.25 h 5.442 5.4419 l 0.279,13.25 0.2791,13.25 h 4 4 l 0.2646,-30.25 0.2647,-30.25 h -4.5147 -4.5146 v 13 13 h -5.5 -5.5 v -13 -13 h -4 -4 v 29.83333 c 0,16.40834 0.3213,30.15466 0.714,30.5474 0.3928,0.39273 2.0803,0.58023 3.75,0.41666 l 3.036,-0.29739 z m 35.9856,-17 0.2647,-30.25 h -4.0147 -4.0146 v 29.83333 c 0,16.40834 0.3213,30.15466 0.714,30.5474 0.3928,0.39273 2.0803,0.58023 3.75,0.41666 l 3.036,-0.29739 z m 139.3172,29.75 c 1.7916,0 1.9182,-0.84972 1.9182,-12.87981 v -12.87981 l 6.001,-0.43407 c 4.8999,-0.35443 6.547,-0.95719 8.9769,-3.28514 3.9083,-3.74445 5.3434,-8.40144 4.8198,-15.64058 -0.7816,-10.8054 -6.1301,-14.87651 -19.5477,-14.87904 l -8.25,-0.002 v 29.83333 c 0,16.40834 0.314,30.14733 0.6977,30.5311 0.3838,0.38377 1.3206,0.45877 2.0818,0.16667 0.7612,-0.29211 2.2472,-0.5311 3.3023,-0.5311 z m 1.9182,-43.13005 v -9.13005 l 4.5869,0.51701 c 2.5229,0.28436 5.1104,1.04039 5.75,1.68005 0.6397,0.63967 1.1631,3.87682 1.1631,7.19365 0,7.0501 -1.5776,8.86939 -7.6912,8.86939 l -3.8088,0 z m 31.2209,30.88005 0.2791,-13.25 5.2206,-0.30124 5.2206,-0.30124 0.2794,13.30124 0.2794,13.30124 h 4 4 v -30 -30 l -4.25,-0.3075 -4.25,-0.3075 v 13.0575 13.0575 h -5.5 -5.5 v -13 -13 h -4 -4 v 29.83333 c 0,16.40834 0.3,30.13334 0.6666,30.5 0.3667,0.36667 2.1536,0.66667 3.971,0.66667 h 3.3043 z m 35.5437,-17.5 0.2647,-30.25 h -4.0147 -4.0146 v 29.83333 c 0,16.40834 0.3213,30.15466 0.714,30.5474 0.3928,0.39273 2.0803,0.58023 3.75,0.41666 l 3.036,-0.29739 z m 97.0429,26 0.3075,-4.25 h -8.5575 -8.5575 v -9 -9 h 8.5 8.5 v -4 -4 h -8.5 -8.5 v -9 -9 h 8.5 8.5 v -4 -4 h -12.5 -12.5 v 30.53078 30.53078 l 12.25,-0.28078 12.25,-0.28078 z m -510.6793,2.18368 c 3.8298,-1.98045 6.8207,-8.392 6.8498,-14.68368 l 0.022,-4.75 h -4 -4 v 4.27749 c 0,5.80216 -2.1835,8.72251 -6.5216,8.72251 -5.4646,0 -5.9488,-1.89019 -5.7615,-22.4924 0.156,-17.15658 0.2644,-18.07405 2.3341,-19.75 4.8454,-3.92362 8.8514,-1.34778 9.7837,6.29091 0.6635,5.43688 0.6746,5.45149 4.1653,5.45149 3.497,0 3.5002,-0.004 3.7725,-5 0.4866,-8.9242 -4.6142,-15.31404 -12.9083,-16.17067 -5.4586,-0.56378 -10.5522,2.02177 -13.3642,6.78377 -1.7334,2.93532 -2.0477,5.58427 -2.3576,19.86744 -0.4393,20.2519 0.5446,25.65944 5.4528,29.9689 2.8853,2.53333 4.3246,3.05056 8.4892,3.05056 2.7582,0 6.3779,-0.70484 8.0438,-1.56632 z m 237.8718,-2.43368 v -4 h -9 -9 v -26 -26 h -4 -4 v 30 30 h 13 13 z m 25.3851,1.9117 c 5.629,-4.42778 6.1149,-6.64551 6.1149,-27.9117 0,-17.79489 -0.1779,-19.80605 -2.0341,-23 -5.376,-9.25077 -18.7646,-9.11899 -24.4713,0.24086 -1.7957,2.94515 -1.9875,5.06358 -1.9909,21.9889 -0,21.21403 0.9579,25.55614 6.3975,28.87319 4.3585,2.65775 12.4856,2.56051 15.9839,-0.19125 z m -12.8284,-8.13421 c -1.2672,-1.8092 -1.5567,-5.52844 -1.5567,-20 0,-16.44416 0.15,-17.92749 2,-19.77749 2.4026,-2.40261 4.7862,-2.53847 7.7775,-0.4433 2.1605,1.51331 2.2225,2.07265 2.2225,20.06575 0,10.8464 -0.4286,19.3098 -1.0352,20.44329 -1.506,2.81389 -7.361,2.63451 -9.4081,-0.28825 z m 45.1447,8.26299 c 5.5189,-3.36504 8.3196,-11.53475 6.3993,-18.66636 -1.2832,-4.76538 -5.7977,-9.2632 -12.8148,-12.76753 -5.829,-2.91093 -7.2859,-4.89186 -7.2859,-9.90599 0,-3.87651 3.2436,-8.7006 5.85,-8.7006 3.2699,0 6.1493,2.94621 6.1636,6.3067 0.028,6.49679 0.8922,7.82816 4.8667,7.49589 l 3.6197,-0.30259 -0.1896,-5.68278 c -0.3097,-9.28482 -4.0288,-14.24814 -11.5964,-15.4762 -8.6286,-1.40023 -15.7207,4.69392 -16.5077,14.18493 -0.2455,2.95992 -0.1675,6.49278 0.1734,7.85079 0.9842,3.92164 5.4544,8.50799 11.0005,11.28642 7.7149,3.86494 8.6198,4.9588 8.6198,10.4204 0,5.55675 -1.7929,7.91644 -6.0148,7.91644 -3.7672,0 -5.9852,-3.2324 -5.9852,-8.72251 v -4.27749 h -4 -4 v 5.03212 c 0,6.65966 2.1358,11.47063 6.1898,13.94225 4.3036,2.62383 11.2681,2.65351 15.5116,0.0661 z m 33.7498,-1.13183 c 5.0298,-4.41622 5.7602,-8.32876 5.3776,-28.80819 -0.29,-15.52156 -0.5691,-18.01387 -2.3629,-21.10046 -5.5414,-9.53531 -19.6171,-8.92529 -24.7144,1.07108 -2.4645,4.83321 -2.5838,37.80834 -0.1587,43.86924 2.1457,5.36261 6.4836,8.02139 13.1224,8.04283 4.4159,0.0143 5.7548,-0.45693 8.736,-3.0745 z m -13.8945,-7.13116 c -1.2584,-1.79654 -1.5567,-5.42905 -1.5567,-18.95294 0,-18.05374 0.6841,-21.27748 4.7313,-22.29326 3.9534,-0.99223 7.0315,1.70456 7.8008,6.83425 1.1578,7.72113 0.1378,33.12655 -1.4046,34.98276 -2.0551,2.47334 -7.6733,2.13827 -9.5708,-0.57081 z m 158.9296,8.05461 c 5.0829,-3.99825 5.5137,-6.59962 5.5137,-33.29998 v -24.53212 h -4 -4 v 22.85078 c 0,26.53306 -0.4993,29.14922 -5.5627,29.14922 -2.3054,0 -3.6934,-0.60987 -4.4022,-1.93426 -0.6313,-1.17963 -1.0351,-11.32322 -1.0351,-26 v -24.06574 h -4 -4 v 25.04966 c 0,27.1412 0.2574,28.64788 5.6148,32.86204 3.7419,2.94338 12.0816,2.90155 15.8715,-0.0796 z m -217.9771,-125.8321 c 6.9885,-19.33902 15.7327,-31 23.2459,-31 4.3148,0 6.3049,1.18581 14.7449,8.78599 8.3741,7.54086 23.3541,17.33264 34.5432,22.57943 19.2464,9.02502 37.1482,13.44584 58.0193,14.32775 43.2075,1.82573 81.7466,-13.34437 112.4375,-44.25868 19.8606,-20.00519 33.5753,-45.50209 40.0381,-74.43449 2.5929,-11.60816 3.1303,-41.30066 0.9819,-54.25392 -10.789,-65.04822 -64.4383,-116.20628 -129.8699,-123.83936 -6.2065,-0.72403 -15.5896,-0.94481 -24.1501,-0.56823 -22.5334,0.99123 -39.1629,5.33429 -60,15.66994 -43.8664,21.75863 -74.2425,64.25819 -80.8087,113.06041 l -1.269,9.43116 -1.2998,-9.89236 c -8.1407,-61.95308 -55.2197,-112.3822 -117.4341,-125.79068 -13.9052,-2.99685 -44.7767,-3.23784 -57.6884,-0.45033 -31.8788,6.88229 -54.7339,19.20489 -77.0725,41.55464 -13.7606,13.76752 -22.9543,26.4572 -29.888,41.25323 -18.0495,38.5166 -18.8357,84.11232 -2.119,122.88701 19.1382,44.39152 59.3588,76.92272 108.0795,87.41671 10.3324,2.22553 35.26,3.08029 46.5,1.59448 29.8501,-3.94586 59.7765,-17.14115 80,-35.27401 9.7592,-8.75033 11.4343,-9.79869 15.6572,-9.79869 10.9006,0 22.6937,22.03201 30.7779,57.5 1.7551,7.7 3.4302,15.125 3.7225,16.5 0.3586,1.68725 2.0935,-3.67689 5.3364,-16.5 2.6427,-10.45 6.0245,-22.375 7.5152,-26.5 z m -176.0092,-68.48159 c -23.6743,-6.39189 -40.1618,-21.29987 -48.3123,-43.68381 -2.4342,-6.68522 -2.6707,-8.61838 -2.6707,-21.8346 0,-13.21622 0.2365,-15.14938 2.6707,-21.8346 3.7678,-10.34755 8.2998,-17.55647 15.8123,-25.15207 12.3579,-12.49467 26.8977,-18.93892 44.635,-19.78297 20.2238,-0.96238 35.9157,5.1551 50.4786,19.67902 7.0194,7.00062 9.3848,10.18872 12.7797,17.22499 5.6051,11.61701 7.4451,20.66932 6.782,33.36563 -1.5616,29.89563 -21.4317,54.1486 -50.4418,61.56814 -8.9174,2.28069 -24.1533,2.49687 -31.7335,0.45027 z m 20.1884,-52.9869 c 1.2036,-0.34496 3.6158,-2.25296 5.3605,-4.24001 2.9199,-3.32565 3.1358,-4.05031 2.7156,-9.11691 -0.3959,-4.77444 -0.9389,-5.94625 -4.0958,-8.83935 -3.0623,-2.80637 -4.3949,-3.33465 -8.404,-3.3315 -6.5573,0.005 -10.5878,2.65676 -12.7856,8.4116 -1.6508,4.32265 -1.6544,4.83733 -0.062,9.00589 1.9565,5.12285 3.1759,6.31554 8.3238,8.1412 3.6527,1.29542 4.3281,1.29309 8.9479,-0.0309 z m 275.5271,52.50773 c -21.5405,-5.81477 -39.4061,-22.69529 -46.7137,-44.13804 -2.5501,-7.4826 -2.8631,-9.76798 -2.8631,-20.9012 0,-11.13322 0.313,-13.4186 2.8631,-20.9012 5.7394,-16.84105 18.3126,-31.3407 33.8127,-38.99334 11.7196,-5.78612 19.7205,-7.42806 33.1855,-6.81022 18.6491,0.85571 31.2227,6.45693 44.6555,19.89289 5.8861,5.88755 8.6393,9.6348 11.7554,16 5.6677,11.57711 7.2151,18.27379 7.2353,31.31187 0.029,18.65997 -6.091,33.51925 -19.1515,46.5 -8.5567,8.50458 -15.554,12.98232 -26.1601,16.74057 -10.1509,3.59695 -27.8949,4.19364 -38.6191,1.29867 z m 25.4907,-54.5824 c 2.6281,-1.72202 5.2938,-7.02111 5.2938,-10.52359 0,-3.60012 -3.1796,-9.07159 -6.42,-11.04757 -8.9372,-5.44988 -20.58,0.83789 -20.58,11.11432 0,11.07998 11.961,16.84213 21.7062,10.45684 z m -151.6416,-88.95684 c 15.3009,-48.80262 60.14,-81.87755 111.9354,-82.56764 l 5.5,-0.0733 -4,-1.4986 c -14.0164,-5.25122 -50.7078,-12.85114 -75,-15.53479 -16.2001,-1.78969 -74.2026,-1.78554 -89,0.006 -25.6342,3.10417 -44.7836,6.85848 -66,12.93955 l -13,3.72606 10.5,0.69455 c 19.1915,1.26948 32.9962,4.76046 47.5,12.01195 36.3771,18.18764 59.3128,50.52738 64.7002,91.2283 l 1.2003,9.06754 1.2644,-10 c 0.6954,-5.5 2.6753,-14.5 4.3997,-20 z m -302.0526,16 c 13.3386,-34.43885 40.445,-64.00466 73.356,-80.01184 5.0226,-2.44286 11.5273,-5.25541 14.455,-6.25012 2.9276,-0.99471 5.4026,-2.24269 5.5,-2.7733 0.097,-0.53061 -2.973,-2.0728 -6.823,-3.42708 -6.9075,-2.4298 -7.5156,-2.4665 -46,-2.77654 -37.6589,-0.30338 -39.1121,-0.24481 -42.2592,1.70321 -1.7925,1.10956 -4.1668,3.484 -5.2762,5.27653 -1.948,3.14746 -2.0068,4.61269 -1.7155,42.75914 0.2913,38.1559 0.3799,39.73384 2.6041,46.37211 1.2664,3.77965 2.6473,6.47965 3.0687,6 0.4214,-0.47966 1.812,-3.57211 3.0901,-6.87211 z m 599.9582,-2.12466 c 1.9827,-7.67657 2.0828,-10.25129 1.8141,-46.68535 l -0.2843,-38.5607 -2.8675,-2.99199 c -1.5771,-1.64559 -4.0929,-3.49956 -5.5906,-4.11993 -1.9146,-0.79307 -14.1266,-1.01957 -41.1325,-0.76291 -36.5044,0.34693 -38.7424,0.47546 -45.1228,2.59155 -3.6924,1.22459 -6.9567,2.62017 -7.2541,3.10129 -0.2973,0.48112 2.7237,2.10742 6.7134,3.614 41.5231,15.67973 74.7525,49.91352 89.161,91.85592 1.0338,3.00923 2.273,0.82528 4.5633,-8.04188 z"
     style="fill:#ae3448" />
  <path
     inkscape:connector-curvature="0"
     id="path156"
     d="m 442.59788,923.85068 c -1.7221,-32.62128 -5.4217,-36.67251 -37.7131,-41.29766 -9.5651,-1.37003 -22.8081,-3.59501 -29.4289,-4.94441 C 269.25548,855.96369 174.18798,799.92669 106.39578,719.01271 33.979682,632.57978 -2.1296176,526.30623 2.9870824,414.66936 5.4941824,359.97072 13.336582,300.45908 29.466082,213.73467 c 5.3443,-28.73515 19.2156,-97.74792 19.753,-98.27596 0.2696,-0.26483 341.867598,-49.886262 659.274598,-95.76796 l 161,-23.2728163 0.7517,2.547389 c 1.3519,4.58165 21.5223,95.8620023 27.6319,125.0473873 37.8651,180.88144 50.0571,283.19246 42.5239,356.84732 -17.8516,174.54077 -140.5139,323.74043 -313.7385,381.61425 -24.9983,8.35185 -49.9657,14.29261 -82.169,19.55137 -20.7913,3.39518 -23.1326,3.99566 -29.0101,7.44009 -3.2407,1.89916 -5.0321,3.95587 -7.0651,8.11115 -2.5557,5.22368 -2.7538,6.61076 -3.2125,22.50133 l -0.4889,16.93449 h -30.7122 -30.7121 z m 239.3958,-228.46677 c 0,-0.34584 -1.6209,-2.42288 -3.6019,-4.61564 -3.1885,-3.52926 -3.5041,-4.34658 -2.75,-7.1212 0.4685,-1.7239 0.8519,-11.93019 0.8519,-22.68066 0,-17.15647 -0.2206,-19.8827 -1.8044,-22.29774 -5.8404,-8.90605 -20.0973,-8.71771 -24.8608,0.32844 -1.5982,3.03503 -1.8348,6.00325 -1.8348,23.0156 0,16.96277 0.2398,19.98942 1.824,23.0156 2.5531,4.87723 9.2818,8.23576 14.8371,7.4057 3.5603,-0.53196 4.3235,-0.31845 5.2852,1.47848 0.9314,1.7403 2.0606,2.10022 6.5888,2.10022 3.0057,0 5.4649,-0.28296 5.4649,-0.6288 z m -24.1276,-13.0215 c -1.8103,-2.17686 -2.5356,-32.14545 -0.9099,-37.5997 1.0452,-3.50648 1.3726,-3.75 5.0424,-3.75 2.8568,0 4.2064,0.52632 4.9599,1.93426 0.592,1.10629 1.0357,8.91831 1.0365,18.25 l 10e-4,16.31574 -5.5013,-0.34255 c -5.8669,-0.36531 -6.7096,0.43916 -3.5014,3.34255 1.1,0.99549 2,2.19023 2,2.65499 0,1.38744 -1.6593,0.9602 -3.1276,-0.80529 z m -428.9739,7.77652 c 3.763,-2.65229 6.1015,-7.96452 6.1015,-13.86062 v -5.2656 h -3.8607 -3.8608 l -0.6047,5.10588 c -0.7266,6.13561 -2.0019,7.89412 -5.7249,7.89412 -5.5625,0 -5.9489,-1.3732 -5.9489,-21.13717 0,-10.49159 0.4316,-18.8008 1.0351,-19.92857 1.2775,-2.38696 7.1277,-2.6479 8.9924,-0.40108 0.6998,0.84325 1.4872,3.76825 1.7497,6.5 l 0.4772,4.96682 h 3.8728 3.8728 v -5.25 c -9e-4,-3.00169 -0.7504,-6.74034 -1.75,-8.73007 -5.4016,-10.75113 -20.3577,-10.60282 -25.2847,0.25073 -1.6494,3.63362 -1.9222,6.62384 -1.9362,21.22934 -0.017,17.45513 0.6784,22.30355 3.7709,26.29505 3.8003,4.90521 13.7289,6.11699 19.1001,2.33117 z m 18.7719,-3.62622 c 0.7248,-3.3 1.5541,-7.0125 1.8428,-8.25 0.4563,-1.95625 1.1654,-2.25 5.4308,-2.25 h 4.9059 l 1.8508,8.25 1.8508,8.25 3.7323,0.31084 c 2.4115,0.20085 3.8942,-0.15304 4.1898,-1 0.2517,-0.72096 -2.571,-14.36084 -6.2726,-30.31084 l -6.7301,-29 -3.4913,-0.29581 -3.4913,-0.29581 -6.7442,29.29958 c -3.7093,16.11477 -6.7441,29.88626 -6.7441,30.60331 0,0.9126 1.2528,1.21148 4.1762,0.99623 l 4.1762,-0.3075 z m 5.0415,-19.25 c -0.2234,-0.4125 0.129,-3 0.7831,-5.75 0.7115,-2.99181 1.4315,-4.39754 1.7925,-3.5 1.3248,3.29336 2.4814,8.89777 1.9466,9.43256 -0.8253,0.82527 -4.0469,0.69521 -4.5222,-0.18256 z m 29.0671,12.61586 0.279,-12.63414 8.471,-0.70563 8.471,-0.70563 v -3.91023 -3.91023 h -8.5 -8.5 v -9 -9 h 8.5 8.5 v -4 -4 h -13 -13 v 29.83333 c 0,16.40834 0.3214,30.15475 0.7142,30.5476 0.3929,0.39284 2.3054,0.58034 4.25,0.41666 l 3.5358,-0.29759 z m 47.221,8.63414 v -4.5 h -8.5 -8.5 v -8.5 -8.5 h 8.5 8.5 v -4.5 -4.5 h -8.5 -8.5 v -9 -9 h 8.5 8.5 v -4 -4 h -12.5 -12.5 v 30.5 30.5 h 12.5 12.5 z m 38,-8.43873 v -12.93872 l 4.75,-0.61368 c 7.6838,-0.99272 11.117,-3.00072 13.281,-7.76794 3.6864,-8.12117 2.1602,-18.532 -3.4805,-23.74093 -2.4399,-2.25316 -3.6868,-2.53394 -12.6289,-2.84371 l -9.9216,-0.3437 v 30.5937 30.59371 h 4 4 z m 0,-31.14917 v -9.0879 l 4.25,0.70097 c 6.0356,0.99547 6.75,1.89773 6.75,8.52585 0,7.02282 -1.5221,8.94898 -7.0715,8.94898 h -3.9285 z m 31,31.0879 v -13 h 5.5 5.5 v 13.0575 13.0575 l 4.25,-0.3075 4.25,-0.3075 0.2646,-30.25 0.2647,-30.25 h -4.5147 -4.5146 v 13 13 h -5.5 -5.5 v -13 -13 h -4 -4 v 30.5 30.5 h 4 4 z m 36,-17.5 v -30.5 h -4 -4 v 30.5 30.5 h 4 4 z m 32.5,26 v -4 l -9.25,-0.28753 -9.25,-0.28752 v -26.01997 -26.01998 l -4.2414,0.3075 c -3.2952,0.2389 -4.3252,0.74848 -4.617,2.28426 -0.2066,1.08721 -0.046,14.71242 0.3563,30.27822 l 0.7319,28.30147 13.1351,-0.27822 13.1351,-0.27823 z m 24.4382,1.58672 c 1.341,-0.94066 3.366,-2.95299 4.5,-4.47184 1.923,-2.57567 2.0618,-4.11958 2.0618,-22.93821 0,-17.53562 -0.2355,-20.60787 -1.7986,-23.47089 -5.1415,-9.41725 -19.9548,-9.54913 -24.8666,-0.22138 -1.596,3.03086 -1.8348,5.99625 -1.8348,22.78212 0,20.37858 0.6057,23.84673 4.821,27.6014 4.1509,3.69733 12.3784,4.04283 17.1172,0.7188 z m -12.0658,-7.73708 c -1.6355,-1.96665 -2.5408,-31.97726 -1.13,-37.45742 0.7828,-3.04084 1.2775,-3.42567 4.7755,-3.71511 6.1698,-0.51052 6.4821,0.51833 6.4821,21.35903 0,16.3172 -0.1851,18.32133 -1.8288,19.80887 -2.3454,2.12255 -6.5356,2.12489 -8.2988,0.005 z m 45.1276,7.76497 c 3.2486,-2.25029 7,-9.64911 7,-13.80626 0,-5.43713 -2.949,-11.2588 -7.2994,-14.41027 -2.2004,-1.59395 -4.5925,-2.89808 -5.3159,-2.89808 -0.7233,0 -2.9543,-1.43918 -4.9577,-3.19817 -3.3987,-2.98417 -3.6084,-3.5001 -3.1339,-7.71054 0.5985,-5.3096 3.3064,-8.08166 7.1727,-7.34257 3.2862,0.62819 3.8851,1.65619 4.5164,7.75128 l 0.5178,5 4.3947,0.31457 4.3948,0.31457 -0.5353,-5.90242 c -0.9566,-10.54952 -5.9705,-16.21534 -14.3564,-16.22298 -9.0353,-0.008 -14.7161,7.20986 -14.1811,18.01864 0.419,8.46362 2.6675,11.61808 11.6433,16.33475 7.4087,3.89312 8.14,4.8271 8.14,10.39592 0,4.40411 -2.3923,7.24695 -6.0983,7.24695 -3.6786,0 -5.9017,-3.28565 -5.9017,-8.72251 v -4.27749 h -4 -4 v 5.54966 c 0,8.42896 3.6032,13.89095 10.209,15.47568 4.1987,1.00725 8.6105,0.29232 11.791,-1.91073 z m 32.113,0.32694 c 1.4752,-0.76285 3.6282,-3.34134 4.7846,-5.73 1.8909,-3.90607 2.1018,-6.09696 2.0968,-21.77727 -0.01,-19.63835 -0.6795,-23.30029 -5.0538,-27.49113 -2.7413,-2.6264 -3.7558,-2.94315 -9.4257,-2.94315 -5.3882,0 -6.7656,0.37993 -9.0632,2.5 -4.8958,4.51728 -5.4517,7.34552 -5.4517,27.73348 0,21.92742 0.6589,24.21753 8.074,28.06018 4.7411,2.45696 8.8039,2.35506 14.039,-0.35211 z m -12.5874,-9.39189 c -2.237,-4.32595 -2.2121,-34.62452 0.031,-37.82715 1.7957,-2.56359 7.4852,-3.08195 9.337,-0.85067 1.5234,1.83566 2.565,21.24118 1.659,30.90959 -0.8043,8.58272 -2.1191,10.71857 -6.5984,10.71857 -2.2032,0 -3.2707,-0.71117 -4.4286,-2.95034 z m 31.4744,-0.98839 v -12.93872 l 4.75,-0.59058 c 10.6553,-1.3248 15.2511,-6.45353 15.2484,-17.01637 0,-7.2754 -2.1828,-12.09686 -6.8963,-15.24567 -2.8936,-1.93306 -4.7116,-2.26993 -12.25,-2.26993 h -8.8521 v 30.5 30.5 h 4 4 z m 0,-31.14917 v -9.0879 l 4.25,0.70097 c 2.3375,0.38553 4.7773,1.12599 5.4218,1.64546 1.7971,1.4485 2.5665,8.07224 1.3188,11.35388 -1.4128,3.71602 -2.59,4.44119 -7.2406,4.46018 l -3.75,0.0153 z m 31.7798,30.8379 0.2799,-12.75 h 4.9701 4.9702 v 13.0575 13.0575 l 4.25,-0.3075 4.25,-0.3075 0.2646,-30.25 0.2647,-30.25 h -4.5147 -4.5146 v 13 13 h -5 -5 v -13 -13 h -4.5 -4.5 v 30.5575 30.5575 l 4.25,-0.3075 4.25,-0.3075 z m 35.2202,-17.25 v -30.5 h -4 -4 v 30.5 30.5 h 4 4 z m 60,27.60206 c 5.5454,-3.86898 5.9967,-6.37859 5.9984,-33.35206 v -24.75 h -3.8686 -3.8685 l -0.4521,24.43143 c -0.4755,25.69681 -0.8221,27.56857 -5.1045,27.56857 -1.1269,0 -2.8718,-0.74474 -3.8776,-1.65499 -1.6762,-1.51699 -1.8287,-3.68494 -1.8287,-26 v -24.34501 h -4.4366 -4.4365 l 0.4875,23.75 c 0.2682,13.0625 0.6994,25.1 0.9583,26.75 1.3626,8.68347 12.7847,12.93424 20.4273,7.60206 z m 37,-1.60206 v -4.5 h -8.5 -8.5 v -8.5 -8.5 h 8.5 8.5 v -4.5 -4.5 h -8.5 -8.5 v -9 -9 h 8.5 8.5 v -4.02988 -4.02987 l -12.75,0.27987 -12.75,0.27988 -0.2658,28.98783 c -0.1461,15.9433 -0.048,29.5558 0.2187,30.25 0.3543,0.92331 3.8486,1.26217 13.0157,1.26217 h 12.5314 z M 484.75508,564.36043 c 7.3539,-20.72509 15.212,-31.34772 23.1895,-31.34772 3.3108,0 4.9354,0.84426 10.1023,5.25 24.3744,20.78339 45.5166,31.75746 73.0663,37.92582 8.9717,2.00875 13.0948,2.32418 30.3805,2.32418 22.2586,0 29.2025,-1.03092 47.1442,-6.99924 50.8914,-16.929 89.1319,-60.59391 99.4008,-113.50076 1.9582,-10.08895 2.7776,-27.32326 1.8931,-39.81876 -2.4977,-35.28629 -17.3878,-67.59305 -42.9412,-93.16892 -21.3286,-21.34723 -45.3645,-34.52671 -75.1164,-41.18814 -8.9827,-2.0112 -13.0738,-2.32299 -30.3805,-2.31532 -17.2311,0.008 -21.4372,0.32942 -30.3805,2.32419 -31.1348,6.94445 -56.7185,21.32363 -78.3121,44.01477 -14.4787,15.21463 -26.8548,35.8972 -33.2627,55.58753 -2.9552,9.08085 -6.48,25.55341 -6.6809,31.22173 -0.088,2.47511 -0.2711,2.95309 -0.5153,1.34292 -6.2181,-41.00698 -18.2307,-66.1207 -43.7698,-91.50599 -17.7459,-17.63905 -36.6367,-29.34663 -58.5787,-36.30427 -15.8344,-5.02095 -23.4461,-6.28068 -41.5,-6.86829 -19.1122,-0.62204 -33.4668,1.18316 -49.5,6.22504 -51.4274,16.17202 -90.1592,59.38529 -101.6877,113.45351 -2.5853,12.12523 -2.5853,45.87477 0,58 12.8432,60.23429 57.0799,104.45169 117.6877,117.6364 13.3752,2.90968 44.9303,2.66284 58.8805,-0.46058 26.0266,-5.82735 50.1035,-17.72739 68.1195,-33.66821 11.3686,-10.05911 14.6347,-11.24718 20.7197,-7.53696 9.3172,5.68095 19.6206,29.05602 25.7989,58.52935 1.4988,7.15 2.9493,13.675 3.2234,14.5 0.2741,0.825 2.4252,-6.15 4.7802,-15.5 2.3551,-9.35 6.0627,-22.01853 8.2392,-28.15228 z m -177.3888,-69.26109 c -13.8539,-3.75924 -27.4626,-12.47944 -35.539,-22.77282 -26.8763,-34.25371 -16.0239,-83.28018 22.6664,-102.39703 36.2934,-17.9326 79.7817,0.40961 93.0143,39.23099 2.5295,7.42097 2.8477,9.74596 2.854,20.85223 0.01,11.06124 -0.3109,13.42081 -2.7543,20.5 -4.0029,11.59751 -8.0014,18.02234 -16.5455,26.58501 -13.1449,13.17352 -26.22,18.83632 -45.0685,19.51905 -9.207,0.3335 -12.9212,0.0309 -18.6274,-1.51743 z m 22.0835,-53.06539 c 5.0481,-2.44377 7.5439,-6.48086 7.5439,-12.20303 0,-6.42063 -3.4685,-10.90251 -9.8668,-12.74957 -4.8316,-1.39478 -8.8754,-0.25978 -12.6997,3.56453 -5.8805,5.8805 -5.4674,14.98113 0.8977,19.77599 5.252,3.95641 8.5133,4.32861 14.1249,1.61208 z m 275.7852,52.96667 c -9.6832,-2.53726 -15.2176,-5.08184 -22.7616,-10.46513 -9.1852,-6.55438 -15.9843,-14.67124 -20.9604,-25.02278 -5.4313,-11.29841 -6.7367,-17.01464 -6.7367,-29.5 0,-12.54182 1.2993,-18.1785 6.8771,-29.83434 7.5922,-15.86513 21.1622,-27.60397 39.2439,-33.94826 6.6541,-2.33471 9.1469,-2.66723 20.0964,-2.6807 9.2682,-0.0114 14.0512,0.4558 18.5,1.8071 23.2524,7.06282 41.0875,25.51811 47.0213,48.6562 2.5561,9.96734 1.7134,28.15607 -1.7529,37.8346 -3.7795,10.55301 -8.2861,17.63474 -16.349,25.69128 -16.3405,16.32749 -41.2416,23.21 -63.1781,17.46203 z m 23.5564,-53.61622 c 3.0988,-1.99648 6.1939,-7.26769 6.1985,-10.55659 0.018,-12.94123 -14.6661,-19.03181 -23.5439,-9.76539 -2.5826,2.6957 -2.9523,3.8147 -2.9523,8.93539 0,4.85521 0.4264,6.31573 2.5,8.56183 4.9922,5.40774 12.0499,6.52789 17.7977,2.82476 z m -151.302,-87.72145 c 10.3626,-36.16344 39.1684,-66.15233 75.1422,-78.22834 9.9502,-3.34016 19.3636,-5.08566 32.2412,-5.97835 5.7085,-0.39573 9.7585,-1.05731 9,-1.47019 -6.1139,-3.32788 -44.8779,-12.02605 -67.1777,-15.07385 -19.2395,-2.62954 -69.6009,-3.7407 -89.8544,-1.98252 -29.7163,2.57964 -64.0059,9.23798 -84.3377,16.37666 l -3.9907,1.40117 10.9907,0.71625 c 31.0661,2.02454 56.4907,13.00514 77.2341,33.35656 19.9484,19.57145 31.1047,43.16805 34.8601,73.73237 l 0.7373,6 1.3095,-10 c 0.7202,-5.5 2.4507,-13.98239 3.8454,-18.84976 z m -300.0152,10.84976 c 15.7247,-38.48307 47.7762,-69.12848 87.3263,-83.49535 3.4687,-1.26005 5.9437,-2.6488 5.5,-3.08611 -0.4438,-0.43731 -4.6318,-1.88752 -9.3068,-3.22269 -7.861,-2.24508 -10.793,-2.47533 -39,-3.06265 -16.775,-0.34928 -34.2664,-0.23578 -38.8697,0.25221 -7.7658,0.82325 -8.6316,1.14913 -12,4.5166 l -3.6303,3.62933 -0.3042,38.23433 c -0.3104,39.00556 0.08,44.38851 3.9648,54.64717 1.2224,3.22801 1.9698,2.233 6.3199,-8.41284 z m 598.4547,1.5201 c 1.9218,-6.96203 2.0643,-10.14684 2.0582,-46 -0.01,-36.05048 -0.1274,-38.70338 -1.8913,-41.3788 -3.5571,-5.39538 -6.3286,-6.40194 -19.4847,-7.07661 -6.6646,-0.34177 -24.4924,-0.21999 -39.6174,0.27063 -24.401,0.7915 -28.3203,1.1512 -34.7788,3.19191 -4.0034,1.26494 -7.1499,2.68664 -6.9924,3.15934 0.1576,0.47269 5.1104,2.82538 11.0063,5.2282 39.9458,16.27949 69.9819,48.03175 85.1381,90.00245 1.0483,2.90306 2.2617,0.93556 4.562,-7.39712 z"
     style="fill:#990018" />
</svg>
