<?xml version="1.0" standalone="no"?>
<!DOCTYPE svg PUBLIC "-//W3C//DTD SVG 20010904//EN"
 "http://www.w3.org/TR/2001/REC-SVG-20010904/DTD/svg10.dtd">
<svg version="1.0" xmlns="http://www.w3.org/2000/svg"
 width="700.000000pt" height="700.000000pt" viewBox="0 0 700.000000 700.000000"
 preserveAspectRatio="xMidYMid meet">
<metadata>
Created by potrace 1.14, written by Peter Selinger 2001-2017
</metadata>
<g transform="translate(0.000000,700.000000) scale(0.100000,-0.100000)"
fill="#000000" stroke="none">
<path d="M6238 6995 c-2 -2 -25 -6 -52 -9 -27 -4 -92 -13 -145 -21 -53 -8
-116 -17 -141 -20 -25 -3 -70 -10 -100 -15 -30 -5 -77 -12 -105 -15 -27 -3
-72 -10 -100 -15 -27 -5 -72 -12 -100 -15 -87 -11 -119 -16 -145 -20 -42 -8
-81 -13 -170 -25 -90 -12 -130 -18 -170 -25 -14 -2 -45 -7 -70 -10 -71 -10
-109 -15 -205 -30 -49 -7 -115 -17 -145 -20 -30 -4 -57 -8 -60 -10 -3 -2 -34
-6 -70 -10 -36 -4 -67 -8 -70 -10 -3 -1 -32 -6 -65 -9 -33 -4 -67 -9 -75 -11
-8 -2 -37 -6 -65 -10 -54 -7 -88 -11 -180 -25 -33 -5 -85 -12 -115 -16 -30 -3
-58 -8 -61 -10 -3 -2 -33 -6 -65 -9 -32 -4 -66 -8 -74 -10 -8 -2 -37 -7 -65
-10 -27 -4 -61 -8 -75 -10 -53 -9 -227 -34 -270 -40 -25 -3 -56 -8 -70 -10
-14 -2 -43 -7 -65 -10 -22 -3 -103 -14 -180 -25 -77 -12 -156 -23 -175 -26
-19 -3 -46 -7 -60 -9 -14 -3 -47 -7 -75 -10 -27 -3 -57 -8 -65 -10 -8 -2 -33
-6 -55 -9 -22 -3 -105 -15 -185 -26 -146 -21 -162 -23 -235 -34 -22 -4 -58 -9
-79 -11 -22 -3 -51 -7 -65 -10 -14 -2 -46 -7 -71 -10 -25 -3 -70 -10 -100 -15
-30 -5 -75 -12 -100 -15 -25 -3 -56 -8 -70 -10 -14 -2 -45 -7 -70 -10 -55 -8
-236 -34 -270 -40 -14 -2 -45 -7 -70 -10 -25 -3 -70 -9 -100 -15 -30 -5 -77
-12 -105 -15 -27 -3 -90 -12 -140 -20 -49 -8 -110 -17 -135 -20 -25 -3 -56 -8
-70 -10 -14 -3 -45 -7 -70 -10 -58 -7 -234 -35 -236 -38 -1 -2 -118 -582 -128
-642 -3 -16 -8 -41 -11 -55 -19 -95 -101 -575 -110 -645 -4 -28 -8 -57 -10
-65 -2 -8 -7 -40 -10 -70 -3 -30 -10 -82 -15 -115 -13 -86 -19 -133 -24 -195
-14 -158 -17 -188 -22 -225 -10 -73 -12 -579 -3 -655 17 -154 20 -177 35 -265
63 -375 215 -784 417 -1120 56 -94 163 -254 177 -265 4 -3 11 -12 16 -21 14
-25 62 -85 143 -179 421 -486 940 -829 1574 -1042 65 -22 128 -41 139 -43 11
-2 28 -7 38 -10 10 -3 27 -7 37 -9 10 -3 56 -13 103 -25 78 -19 179 -38 240
-46 43 -6 93 -15 150 -27 30 -6 58 -12 61 -12 3 -1 22 -10 42 -21 59 -32 79
-93 92 -290 2 -27 4 -53 4 -57 1 -5 103 -8 229 -8 l227 0 2 102 c4 164 16 208
72 247 29 21 117 45 198 55 23 3 63 10 88 16 25 6 62 13 83 16 163 25 489 119
657 189 103 42 272 121 286 132 8 7 21 13 27 13 21 0 301 170 423 256 172 122
283 217 450 384 304 304 552 668 709 1040 17 41 35 84 40 95 27 58 98 283 126
395 15 63 55 263 59 295 3 22 9 74 15 115 12 85 12 717 0 825 -5 39 -11 106
-15 150 -4 44 -9 89 -11 100 -2 11 -6 40 -9 65 -2 25 -7 61 -9 80 -6 38 -56
363 -61 395 -8 57 -48 282 -65 370 -10 55 -22 116 -25 135 -3 19 -8 42 -11 51
-2 10 -7 30 -9 45 -5 38 -56 292 -95 474 -17 80 -33 156 -36 169 -4 20 -70
321 -79 361 -7 32 -37 166 -42 190 -3 14 -6 30 -7 35 -1 6 -11 47 -21 93 l-18
83 -118 -2 c-65 0 -119 -2 -121 -4z m-2373 -1869 c17 -3 62 -10 100 -15 39 -6
79 -13 90 -15 11 -2 56 -11 100 -20 114 -24 238 -57 250 -67 5 -5 -3 -9 -20
-10 -33 -1 -60 -4 -152 -19 -260 -43 -499 -222 -624 -468 -44 -87 -84 -231
-89 -317 -1 -16 -12 20 -24 80 -39 188 -110 328 -230 453 -62 66 -204 167
-266 191 -19 7 -44 17 -55 21 -26 11 -87 30 -111 34 -10 2 -35 6 -54 10 -19 3
-66 8 -105 12 -38 3 -71 6 -72 8 -3 2 108 36 172 52 60 15 272 53 350 63 50 6
101 13 115 15 34 5 588 -2 625 -8z m-1910 -174 l60 -19 -60 -27 c-159 -72
-243 -123 -345 -214 -118 -103 -211 -230 -280 -383 -21 -46 -42 -85 -48 -87
-26 -8 -36 105 -37 397 0 322 -2 313 61 346 25 13 70 15 309 11 244 -4 288 -7
340 -24z m3765 15 c65 -22 68 -39 66 -364 -1 -254 -4 -295 -20 -343 -18 -52
-20 -53 -29 -30 -140 338 -348 549 -667 676 -22 9 -40 20 -40 24 0 13 64 31
138 39 119 12 514 11 552 -2z m-3097 -77 c307 -60 594 -269 752 -545 48 -86
106 -251 126 -365 l13 -75 14 75 c15 86 13 77 35 152 23 76 71 178 121 258
110 175 274 321 460 409 176 83 286 107 491 106 148 -1 187 -7 304 -41 395
-118 699 -456 775 -864 19 -98 15 -352 -7 -435 -38 -146 -83 -255 -150 -362
-64 -101 -191 -235 -286 -300 -25 -18 -50 -36 -56 -40 -46 -37 -276 -133 -353
-148 -108 -20 -344 -24 -440 -6 -186 35 -357 118 -535 260 -95 75 -121 80
-173 30 -50 -48 -98 -158 -151 -343 -42 -148 -59 -196 -60 -164 0 7 -5 38 -12
68 -7 30 -15 65 -17 78 -26 132 -111 319 -166 367 -51 43 -72 38 -181 -50
-167 -134 -377 -229 -560 -252 -72 -8 -249 -9 -317 -1 -215 27 -477 161 -636
326 -144 149 -247 344 -295 562 -8 33 -12 122 -12 220 1 142 5 179 27 263 109
421 458 746 881 821 92 16 318 14 408 -4z m-928 -2609 c59 -35 74 -148 20
-148 -20 0 -25 5 -25 23 0 54 -14 74 -50 74 -37 0 -39 -8 -39 -165 1 -132 6
-155 39 -155 29 0 47 30 49 83 1 12 9 17 32 17 32 0 32 0 26 -46 -9 -84 -62
-126 -133 -108 -69 17 -79 44 -79 213 0 159 6 185 51 212 35 21 75 22 109 0z
m221 11 c5 -4 20 -52 33 -107 24 -107 71 -325 71 -330 0 -1 -11 -5 -25 -7 -30
-6 -34 -1 -49 66 -11 49 -13 51 -47 54 -35 3 -35 3 -55 -60 -19 -62 -21 -64
-65 -59 -12 1 -10 10 26 166 13 55 33 142 45 193 22 92 33 107 66 84z m307
-14 c9 -33 1 -38 -63 -38 l-58 0 -4 -50 c-5 -76 1 -84 58 -86 27 -1 54 -2 60
-3 9 -1 10 -17 5 -51 -1 -3 -27 -6 -58 -8 -31 -1 -59 -5 -61 -7 -3 -3 -6 -44
-6 -92 -1 -76 -4 -87 -21 -93 -41 -15 -44 1 -45 231 l0 219 94 0 c88 0 94 -1
99 -22z m225 -5 c-3 -27 -6 -28 -66 -31 l-63 -3 3 -67 3 -66 60 -1 c58 0 60
-1 63 -28 4 -33 -23 -46 -85 -39 l-41 4 1 -64 2 -63 63 -3 63 -3 -3 -32 -3
-32 -90 0 -90 0 -3 228 -2 227 95 0 96 0 -3 -27z m392 2 c58 -53 43 -200 -22
-221 -26 -8 -49 -12 -70 -13 -16 -1 -18 -13 -18 -101 0 -98 0 -100 -22 -96
-13 3 -26 5 -30 5 -5 1 -8 103 -8 227 l0 226 76 -5 c51 -3 81 -11 94 -22z
m120 -73 l0 -98 40 1 c45 0 42 -9 42 116 l0 76 34 1 35 1 -3 -224 -3 -225 -22
0 c-13 0 -26 0 -30 0 -5 0 -8 42 -9 93 l-1 92 -39 0 -39 0 -5 -95 -5 -95 -27
-1 -28 0 0 228 0 228 30 0 30 0 0 -98z m270 -127 c0 -124 -3 -226 -7 -226 -5
-1 -18 -3 -30 -4 l-23 -2 0 228 0 229 30 0 30 0 0 -225z m101 213 c0 -7 0 -95
1 -195 l0 -183 69 0 69 0 0 -30 c0 -33 9 -31 -125 -33 l-70 -1 -2 39 c-1 22
-2 120 -4 218 -2 146 0 180 12 188 20 13 49 11 50 -3z m339 -23 c24 -25 25
-29 28 -186 l3 -160 -34 -34 c-37 -37 -72 -44 -122 -25 -44 17 -55 62 -55 221
0 151 9 186 54 207 35 16 98 5 126 -23z m199 29 c41 -8 68 -48 77 -111 l6 -50
-31 1 c-17 0 -32 4 -32 9 -1 4 -3 12 -4 17 -1 6 -3 19 -4 29 -2 34 -28 52 -56
39 -14 -6 -25 -19 -25 -29 0 -9 -3 -24 -6 -32 -6 -15 42 -67 61 -67 6 0 27
-15 47 -33 51 -46 59 -96 27 -156 -29 -55 -68 -71 -128 -52 -43 13 -62 44 -66
111 -2 38 -1 40 26 40 27 0 36 -12 30 -44 -3 -17 30 -56 47 -56 28 0 42 21 42
61 0 34 -4 39 -60 73 -68 42 -77 55 -83 114 -7 68 37 138 89 141 6 1 26 -2 43
-5z m281 -19 c28 -26 38 -83 36 -224 -1 -115 -4 -133 -22 -158 -46 -61 -149
-50 -178 19 -18 41 -16 302 2 335 27 49 121 65 162 28z m231 -2 c48 -41 58
-123 22 -184 -15 -25 -67 -49 -107 -49 -19 0 -17 8 -19 -104 -2 -83 -3 -89
-24 -92 -12 -2 -25 1 -29 8 -6 9 -9 300 -5 420 1 27 2 27 67 26 54 -1 72 -6
95 -25z m134 -70 c-1 -95 3 -105 41 -98 11 2 22 4 27 4 4 1 7 44 7 96 l0 95
33 0 33 0 -1 -225 c0 -193 -2 -225 -15 -226 -8 0 -23 -2 -32 -4 -16 -3 -18 7
-18 95 l0 99 -37 -2 -37 -2 -3 -89 c-2 -50 -5 -92 -7 -93 -2 -2 -15 -6 -30 -9
l-26 -4 0 230 0 231 33 -3 32 -3 0 -92z m260 -133 c0 -218 -1 -225 -20 -226
-11 0 -24 3 -30 7 -8 6 -13 427 -6 447 0 2 13 2 29 0 l27 -3 0 -225z m200 215
c18 -9 38 -28 44 -42 12 -27 17 -316 5 -334 -3 -6 6 -25 20 -44 14 -18 26 -36
26 -40 0 -11 -71 -1 -82 12 -6 7 -31 13 -55 13 -38 0 -50 5 -78 33 l-33 33 1
161 c2 145 4 163 22 183 37 41 78 49 130 25z m151 -167 c1 -178 7 -208 39
-208 35 0 39 34 44 338 1 52 2 53 29 50 l27 -3 0 -165 c1 -91 -3 -181 -7 -200
-16 -77 -100 -105 -158 -52 l-31 27 -5 198 -6 198 33 -3 34 -3 1 -177z m371
150 l4 -28 -66 0 -66 0 3 -67 3 -68 60 0 60 0 2 -32 c1 -33 1 -33 -45 -34 -26
-1 -54 -2 -62 -3 -11 -1 -16 -17 -18 -63 l-3 -63 66 0 66 0 -3 -32 -3 -33 -80
1 c-45 0 -87 3 -95 6 -15 5 -17 82 -11 383 l1 60 92 0 91 0 4 -27z"/>
<path d="M2337 4294 c-1 -1 -15 -4 -32 -7 -157 -25 -315 -168 -368 -333 -87
-270 77 -567 353 -637 99 -26 237 -10 335 38 180 87 288 272 279 477 -11 258
-250 477 -512 467 -28 -2 -53 -3 -55 -5z m122 -408 c83 -43 51 -170 -46 -183
-35 -5 -43 -1 -72 28 -30 29 -33 37 -28 76 8 77 78 114 146 79z"/>
<path d="M4476 4276 c-81 -28 -148 -68 -199 -120 -67 -67 -85 -96 -118 -179
-28 -70 -30 -79 -30 -183 -1 -76 3 -102 26 -160 15 -38 34 -76 41 -85 8 -8 14
-20 14 -26 0 -6 28 -38 61 -72 98 -97 228 -150 358 -146 94 4 127 12 206 50
173 84 271 232 280 419 4 104 -7 165 -46 243 -55 113 -170 215 -290 259 -70
25 -228 25 -303 0z m221 -411 c59 -68 -3 -177 -91 -161 -62 12 -94 74 -72 143
18 56 121 67 163 18z"/>
<path d="M1889 2093 c0 -4 -3 -20 -5 -35 -3 -21 -1 -28 11 -28 17 0 22 55 5
65 -5 3 -10 3 -11 -2z"/>
<path d="M2730 2176 c0 -36 3 -66 8 -67 4 0 15 -2 25 -4 28 -5 47 23 47 70 0
48 -1 50 -47 60 l-33 7 0 -66z"/>
<path d="M3561 2216 c-12 -14 -15 -235 -4 -276 8 -30 44 -36 64 -11 14 18 17
41 15 148 -1 71 -5 134 -9 141 -11 16 -52 15 -66 -2z"/>
<path d="M4050 2220 c-21 -13 -22 -269 -1 -293 19 -24 48 -21 62 6 14 25 18
224 6 270 -8 28 -37 36 -67 17z"/>
<path d="M4275 2178 c0 -67 8 -78 52 -70 15 3 26 14 30 31 15 55 -4 89 -53 97
l-29 4 0 -62z"/>
<path d="M4893 2218 c-9 -15 -15 -204 -7 -235 5 -16 14 -21 46 -21 l39 -1 -2
117 c-1 64 -6 125 -11 135 -10 20 -53 23 -65 5z"/>
<path d="M4890 1936 c0 -8 5 -18 10 -21 6 -3 10 1 10 9 0 8 -4 18 -10 21 -5 3
-10 -1 -10 -9z"/>
</g>
</svg>
